<?xml version="1.0" encoding="utf-8"?>
<!-- Generator: Adobe Illustrator 27.2.0, SVG Export Plug-In . SVG Version: 6.00 Build 0)  -->
<svg version="1.1" id="Layer_1" xmlns="http://www.w3.org/2000/svg" xmlns:xlink="http://www.w3.org/1999/xlink" x="0px" y="0px"
	 viewBox="0 0 492.5 492.5" style="enable-background:new 0 0 492.5 492.5;" xml:space="preserve">
<style type="text/css">
	.st0{fill:#FFFFFF;}
</style>
<g>
	<g>
		<g>
			<g>
				<g>
					<g>
						<g>
							<g>
								<g>
									<path class="st0" d="M256,245.3c-0.1,1.2,1.5,0.8,1.8,1C257.5,244.2,255.6,245.3,256,245.3z"/>
									<polygon class="st0" points="252.2,225 252.9,225.4 251.2,222.4 									"/>
									<path class="st0" d="M252.2,206c-2.9,1.8,0.5,6.9-0.6,10.3l-0.6,0.6l2.3,1.5C253,214.3,251.4,208.9,252.2,206z"/>
									<path class="st0" d="M258.4,195.9c-1.1,0.6-1-2.2-0.4,2.4c0.1-0.2,0.2-0.3,0.3-0.4C258.3,197.4,258.3,196.9,258.4,195.9z"
										/>
									<path class="st0" d="M258.3,197.8C258.4,199.8,259.3,196.5,258.3,197.8L258.3,197.8z"/>
									<path class="st0" d="M257.7,188.6l1,2.6c0.7-0.6,0.8-2.9,1.3-2C259.4,186.5,258.8,187.1,257.7,188.6z"/>
									<path class="st0" d="M255.6,186.1l0.4,1.4C256.3,187.2,256.4,186.9,255.6,186.1z"/>
									<path class="st0" d="M256.9,190.4l-0.9-2.9c-0.5,0.4-1.4,0.4,0.3,1.3C255.5,188.6,256.3,189.1,256.9,190.4z"/>
									<path class="st0" d="M256.5,192c-0.6,1.5-1,3.4-2,0.7C254.9,197.8,256.9,197,256.5,192z"/>
									<path class="st0" d="M249.3,205.1l-0.8,2l1,1.7C248.9,207.9,250.2,204.9,249.3,205.1z"/>
									<path class="st0" d="M259.2,172.2c-0.6-0.2-1.6,0.9-2.4,1.1l0.7,1.9C257.9,174.2,258.3,172.3,259.2,172.2z"/>
									<path class="st0" d="M256.8,173.3l-1-2.9C255.6,173,256.1,173.5,256.8,173.3z"/>
									<polygon class="st0" points="252.4,185.6 254.6,190.4 252.4,184.7 									"/>
									<polygon class="st0" points="259.3,161.1 260.7,162.7 258.5,159.8 									"/>
									<path class="st0" d="M259,153.7c1.2,1.2,2-1.7,2.7-0.4c-0.2-2-1.2-3.7-2.1-5.3C260.1,149.7,260,151.5,259,153.7z"/>
									<path class="st0" d="M258.3,145.5c0.3,0.8,0.8,1.7,1.3,2.6C259.3,147.2,258.9,146.4,258.3,145.5z"/>
									<path class="st0" d="M256,165.4c0.4-0.2,1.3-0.7,1.7-2.3l-1.7,1.1C256.1,164.6,256.1,165,256,165.4z"/>
									<path class="st0" d="M256,164.3L256,164.3c0.1-1.3,0.1-2.1,0.2-2.5C256.1,162.1,256.1,162.9,256,164.3z"/>
									<path class="st0" d="M256,165.7c0-0.1,0-0.2,0-0.3C255.9,165.5,255.8,165.6,256,165.7z"/>
									<path class="st0" d="M254,178c-1-1.7-2-5.3-3.4-1.8C251.7,177.4,252.6,175.4,254,178z"/>
									<path class="st0" d="M253.9,167.1l-0.4,3.1c0.5-0.1,1.1-0.6,1.6,0.2L253.9,167.1z"/>
									<polygon class="st0" points="253.4,165.6 253.9,167.1 254,166 									"/>
									<path class="st0" d="M256.7,150.8c-0.7-1.3-0.8-2.8-0.9-4.4c-0.3,1.8-0.5,3.6-0.5,5.3C255.8,151.9,256.7,152.7,256.7,150.8
										z"/>
									<path class="st0" d="M256.2,157.4c0-0.1-0.1-0.2-0.1-0.3C256,157.3,255.9,157.4,256.2,157.4z"/>
									<path class="st0" d="M255.8,130.1c-0.1,0.1-0.2,0.2-0.3,0.3c0.1,0,0.2,0,0.3,0.1L255.8,130.1z"/>
									<path class="st0" d="M254.9,152c-0.3,1.3,0.1,2.1,0.6,2.9c-0.2-1-0.3-2-0.3-3.2C255,151.6,254.8,151.6,254.9,152z"/>
									<path class="st0" d="M257.5,141c-0.4,0.7-0.7,1.5-0.9,2.3C257.1,142.6,257.9,141.2,257.5,141z"/>
									<path class="st0" d="M256.6,156.6c0,0.1,0.1,0.1,0.1,0.2C257,156.4,256.8,156.4,256.6,156.6z"/>
									<path class="st0" d="M256.6,156.6c-0.2-0.7-0.7-1.2-1-1.8c0.1,0.8,0.3,1.6,0.6,2.2C256.2,156.9,256.4,156.7,256.6,156.6z"
										/>
									<path class="st0" d="M244.8,125.2c1.6,0.2,3,3.7,1.3,6.7c1.2,3,6.4,1,9.3-1.6c-0.7-0.1-1.3-0.1-2.3-3.1
										c-0.9,1.1-2,6.8-3.5,4.2c-0.8-4,0.6-3.3,1.4-5.3c-2,1.7-2.9-5.1-5.8-4.3l1,3.5C245.9,125.5,245.2,124.2,244.8,125.2z"/>
									<path class="st0" d="M255.3,136.2l0.2,1.3c0.3-1.4,0.9-2.5,2.1-4.3c-0.8-2.1-1.4-2.5-1.9-2.7l-0.2,6.2L255.3,136.2z"/>
									<path class="st0" d="M255.5,143.1c-1.7-1-2.5-4-4.3-2.2c0.1,3.7,1.4,2.6,2.2,4.8c-0.4-6,1,1.7,1.9-2.6
										c0.3,1.2,0.4,2.2,0.5,3.2c0.2-1.1,0.5-2.1,0.8-3.1c0,0.1-0.1,0.1-0.1,0.1l0,0c0,0,0,0,0,0c-0.2,0.3-0.3,0.3-0.2,0.1
										c0,0,0-0.1,0-0.1C255.9,143.3,255.7,143.2,255.5,143.1c0.4-1.7,0.5-0.3,0.7,0.3c0.1,0,0.2,0.1,0.3,0.1c0,0,0,0,0,0l-0.9-6
										C255.3,138.7,255.3,140.3,255.5,143.1z"/>
									<path class="st0" d="M246.9,173c0.2-0.2,0.3-0.2,0.4-0.2C247,172.4,246.9,172.3,246.9,173z"/>
									<path class="st0" d="M247.9,170.6c0.2,0.4,0.9,0.8,0.8,2.2c-0.5,1.2-0.8,0-1.4,0.1c0.5,0.8,1.2,3,2.1,0.3l-0.2-0.4
										c0.6-2.4,2.7-5.5,3-5.1C250.5,168.3,249.4,169,247.9,170.6z"/>
									<path class="st0" d="M251.3,156.7l-0.8-5l-1.5,2.5l0.9-0.1C249.5,156.9,250.6,156.3,251.3,156.7z"/>
									<polygon class="st0" points="256.6,129.6 258.4,130.2 255.9,127.3 									"/>
									<polygon class="st0" points="256.4,123.1 258,123.3 257,121.6 									"/>
									<path class="st0" d="M48,142.7l-0.2,1.5C48,143.5,48,143,48,142.7z"/>
									<path class="st0" d="M53,133.9l-0.5-0.6C52.6,133.9,52.8,134.2,53,133.9z"/>
									<path class="st0" d="M196.2,8.3c-2.5-1-5.4-2.6-4.8-0.9l1.1,1.5C193.9,8.2,195.1,8.2,196.2,8.3z"/>
									<path class="st0" d="M101.2,64.3c0.3,0,0.5,0,0.8,0c0-0.8,0.1-1.5,0.1-2.2C101.9,62.7,101.5,63.5,101.2,64.3z"/>
									<path class="st0" d="M104.6,70.8c0,0-0.7,0.2-1.4,0.4c-0.4,0.1-0.7,0.2-1,0.3c-0.3,0.1-0.4,0.1-0.4,0.1
										C102.4,71.5,103.4,71.3,104.6,70.8z"/>
									<path class="st0" d="M30.5,194.8l1.4,2C32.4,194.3,31.3,195.2,30.5,194.8z"/>
									<path class="st0" d="M255.8,57c0.7-1.8,1-3.3,1-4.6C255.8,54.7,254.3,56.4,255.8,57z"/>
									<path class="st0" d="M33.7,130.3c-0.2,0.9,0,1.5,0.3,1.6C34.2,131,34.2,130.3,33.7,130.3z"/>
									<path class="st0" d="M256.8,47.2c-0.2,0.3-0.3,0.6-0.4,1c0.3,1.3,0.5,2.7,0.4,4.3C257.6,50.8,258,49,256.8,47.2z"/>
									<path class="st0" d="M167.6,236.4c0.2,0.1,0.3,0.1,0.5,0.2C168.1,236.3,167.9,236.3,167.6,236.4z"/>
									<path class="st0" d="M228.5,253.9c-0.6,0.1-1.6,0.1-2.5,0.1C226.5,254.1,227.2,254.1,228.5,253.9z"/>
									<path class="st0" d="M257.2,97.1C257.3,98.5,257.4,97.4,257.2,97.1L257.2,97.1z"/>
									<path class="st0" d="M250.3,103.8c-0.2-0.3-0.4-0.5-0.8-0.5C249.9,103.4,250.1,103.6,250.3,103.8z"/>
									<path class="st0" d="M246,33.5c0,0,0-0.1,0-0.1C245.7,33.8,245.7,33.8,246,33.5z"/>
									<path class="st0" d="M256.4,99.2c0.2-0.5,0.4-1.1,0.5-1.8C256.8,97.7,256.6,98.3,256.4,99.2z"/>
									<path class="st0" d="M257.2,98.9c-0.1,0.5-0.1,0.8-0.2,1.2C257.3,100.3,257.5,100.1,257.2,98.9z"/>
									<path class="st0" d="M257.1,95.2c0,0.8-0.1,1.5-0.2,2.2c0.1-0.3,0.2-0.4,0.3-0.3C257.1,96.7,257.1,96.2,257.1,95.2z"/>
									<path class="st0" d="M55.5,241c0.1,0.1,0.2,0.1,0.3,0.2C57.2,240.5,56.6,240.6,55.5,241z"/>
									<path class="st0" d="M166.9,35.6c0.1,0,0.1-0.1,0.1-0.1c-0.1,0-0.1,0-0.2,0L166.9,35.6z"/>
									<path class="st0" d="M163,38.5c1.1-2.7,2.3-2.9,3.8-3.1l-3.3-4.1c0,0-0.2,1.8-0.3,3.6C163.1,36.7,163,38.5,163,38.5z"/>
									<path class="st0" d="M38.4,164.9l2.7-2.5c0.9,4.6-0.9,6.9,2.2,4.9c-2.4-1.2-1.4-4.2-0.4-7.2c1.2-2.9,2.4-5.9,0-7.2l1.9-1.5
										c-0.3,0.5-0.1,0.8-0.4,1.3c4.1-2.7-2.2-4.5,1-9.1c1.2-1.5,2.5-2.3,2.5-0.9c0,0,0.2-1.1,0.4-2.2c0.2-1.1,0.4-2.2,0.4-2.2
										c0.7-1,1.4-0.3,0.7,0.7l2.9-5.8l0.1,0.1c-0.3-1.2-0.4-3.7-0.3-4.9c1.6-1,0,1,0.9,1c0,0,0-0.2,0.1-0.6
										c0.1-0.4,0.2-0.8,0.3-1.3c0.2-0.9,0.4-1.9,0.4-1.9c2-0.5,1.5,2.7,0,4.8c3.2,0,3.3-0.8,3.4-2.2c0.1-1.4,0.3-3.3,3.6-5.5
										l-1.2,3.2c1.9-0.1,2.9-0.8,4-1.8c1-1,2.2-2.1,4-3.1c-0.7,0.1-2.7,0.9-4.5,1.3c-1.8,0.4-3.2,0.3-2.7-1.7
										c1-0.7,2-1.7,2.3-4.1c1.6,1.1,2.4-0.8,3.8-3l2,1.7c0.5-1.3,0.5-2.1,0.3-2.9c-0.1-0.7-0.4-1.4-0.4-2.4
										c2.1-2.3,4.1-1.6,5.8-1.1c3.3-3.6-4.6,0.7-1.4-4.2c3.4-2.6,4.5-5.3,6.6-10.1c2.7-1.5,0.8,1.4,2.1,1.2l0.3-3.2
										c0.5-0.4,0.8,0.2,0.9,0.4c0.9-2.1-1.7-1.9,0.1-4.8c-0.7-1.3,1.3-1.9,3.5-2.7c2.3-0.8,4.8-1.9,5.2-4.5
										c1.2-0.2,0.7,1.5,1.6,2c0.7-1.4,1.2-2.4,1.6-3.1c0.4-0.7,0.7-1.3,1-1.8c0.5-1.1,0.9-2.1,1.8-4.8l4.2-1.4
										c-1.7,0.2-2.3-0.7-2.2-2.2c0.1-1.5,0.9-3.4,1.7-5.2c-1.4-0.1-2.7-0.1-3.4,0l3.5-4.5c0.8-0.1,0.9,1,0.8,2.4
										c0.2-0.4,0.3-0.8,0.4-1.1c2.1-0.5,2.2,1.3,2,3.3c-0.8,0-1.7,0-2.5,0c-0.1,2.1,0,4.2,1.2,5.2c0.1-0.4,0.5-1.1,1-1.6
										c0,0.5,0.1,1,0.3,1.1c0.3,0.1,0.4-0.7,0.7-1.7l2.7,1.5l-0.5-1.1c0,0,1.6-0.7,3.3-1.4c0.8-0.4,1.7-0.7,2.3-0.9
										c0.6-0.2,1-0.4,1-0.4c1.2-2.6,2.1-5.4,3.4-8.3c1.4-2.8,3.3-5.6,6.4-8.3c-0.6,2.9,1.4,3.1,2.7,5.3c-1.6-0.5-2.8,0.5-4,2
										c-1.2,1.4-2.5,3.1-4.3,4.1c1.9-1,2.2,0.2,2,0.9c0,0,0.3-0.4,0.7-0.9c0.5-0.6,1.1-1.3,1.7-2c1.2-1.5,2.4-3,2.4-3
										c0.9,1.8,2.1,0.4,4.2,0.1c-3.4-2.7,3.3-5,5.3-7.6c0.8,1.1,0.9,2.6-2.4,4.2c2.5,0.3,3-1.3,3.5-3.1c0.5-1.7,1-3.5,3.4-3.3
										c-0.8,0.4-1.3,0.5-1.3,1.2c1.3-2,6.3-3.5,5.8-1.9l-0.8,0.4c1.4-0.6,3.1-1.4,4.8-2.3c1.8-0.9,3.6-1.8,5.3-2.8
										c1.7-1,3.1-2.1,4.2-3.1c1-1,1.7-1.9,1.5-2.8c0.2,0.4,0.8,4.1,0.8,4.8c0,0,1.3-3.6,2.8-7.2c0.7-1.8,1.5-3.7,2.1-5
										c0.3-0.7,0.5-1.3,0.7-1.7c0.2-0.4,0.3-0.6,0.3-0.6c0,1.5,1.5,3.6,2.5,5.7c0.9,2.1,1.3,4.2-0.6,5.9c0.7-0.1,1.5-0.2,2.5-0.4
										c0.9-0.3,2-0.8,3.2-1.7c-1-0.1-3.7-3.2-2.5-3.9c4.5,1.9,3,0.8,8,2c-0.8-0.1-1.1-1.3-1-2.6c0.1-1.3,0.7-2.7,1.9-2.9
										c-0.1,0.8,1.5,4.3,0.8,5c0,0,1-1.5,2.1-2.9c1.1-1.5,2.1-2.9,2.1-2.9c-1.2,1.2,0.8,3.7,2.3,4.6c-0.8-0.7,4.7-1.3,6-2
										l-2.6-0.5c3.2-0.4,4.3-2.3,5.5-4.2c0.6-1,1.2-2,2-2.8c0.9-0.8,1.9-1.5,3.6-1.7c-0.6,1.1-0.7,5.9,2.5,5.9
										c0.5-1.3,1.6-4.3,3.3-7.3c0.9-1.5,1.9-3.1,3-4.4c1.2-1.3,2.5-2.3,3.9-3l1.3,1.2l4.3-2.1c-1.2,1.9-3.5,4.9-5.9,7.8
										c-2.4,2.9-4.9,6-6.6,7.7c2.5,0.6,0.9,1.4,4.4,0.7c1.4,1-1.6,2.2-2.6,2.4c0,0,2-0.2,4.1-0.3c2-0.1,4.1-0.1,4.1-0.1
										c-0.7-2.6,5.9-3.5,5.3-5.7l-8.6,3.9c-0.4-1.3,0.6-3.4,2.5-5.1c1.9-1.7,4.7-3.3,7.7-3.3c1.6,1-0.7,4.9-0.4,5.7
										c0.7-1,5.4-2.2,6-1.6l-2.4,1.6c0.8,0.2,1.6,0,2.3-0.3c0.3-0.1,0.7-0.3,1-0.5c0.2-0.2,0.3-0.4,0.5-0.6
										c0.4-0.4,0.8-0.7,1.3-0.8c0.5-0.1,1,0.1,1.3,0.7c0.3,0.1,0.5,1,0.6,1.6c0,0.7,0,1.1,0.6,0.3c0.5-1.6,1.6-4.8,2.9-7.9
										c1.2-3.1,2.8-6.1,4.5-7.3c0.3,0.1,2.4,0.8,4.1,1.6c0.9,0.4,1.7,0.9,2.2,1.4l0.2,0.2c0,0.1-0.1,0.3-0.1,0.5
										c-0.1,0.3-0.2,0.7-0.3,0.9c-0.2,0.6-0.4,1.1-0.6,1.5c-1.2,2.3-2.6,2.6-4,3.2c-0.3,0.2-0.7,0.3-1,0.5
										c-0.4,0.2-0.6,0.4-1.1,0.8c-0.4,0.3-0.7,0.7-1,1c-0.1,0.2-0.2,0.3-0.3,0.4c-0.1,0.1-0.2,0.3-0.3,0.5
										c0.7-0.7,1.6-0.8,1.9-0.7c-0.3,0.8-0.9,1.2-1.3,1.6c-0.4,0.4-0.8,0.9-0.6,1.6c1.4-0.9,1.3,0.3,1.2,0.9c0,0.3-0.1,0.5,0,0.4
										c0.1-0.2,0.4-0.6,1-1.9c0.4,0.9,0.2,1.6,0,2.3c-0.2,0.7-0.5,1.5-0.5,2.7c0.9-0.6,2.4-0.4,3.8,0.8c0.7,0.6,1.3,1.4,1.9,2.2
										c0.5,0.8,0.9,1.7,1.1,2.5c-0.7-0.2-1.6,0.5-2,0.9c-0.2,6.4-1.5,9.9-1.5,15.8c-0.7,0.6-1.5,3.4-2.6,2.2
										c0.5,0.9,1.4,1.7,1.5,3.5c-2.4,3.6-0.4-4.1-3.2-1.4c1.6,0.2,2.2,4.8,3.2,7.4c2.4-0.8,0.5-6.1-0.5-8.7
										c3.4,0,6.9,4.6,8.5,10.8c0.8,5-2.2,2.2-1.7,3c-0.6,9.3,5.9,8,3.5,15.7c-2.2,3.1-4.3,0.1-5.8,0.8c-0.8-4,1.4-6.2,1.3-9
										l-1,3.4c-0.7-1.3-1.3-4-0.6-5.5c-1.9,2.6-0.4,15.8-2.2,23c0.7,1.3,1.5,3.5,2.3,2.4l-0.3-2.3c1.7-2.1,2.4,4.3,3.2,1.4
										c1.2,3.1,3.1,6.5,2.2,10.8l-2.5,0.8c0.7-0.1,1.5-2.8,0.7-4c1.1,1.8-3.3,6.6-0.1,8.6l1.7-3c1.2,3.1,3.8,6.9,3.1,10.7
										c2.4-1.7-0.3-0.9,2.6-3.6c-3.5,2.3,0.1-9.8-3.6-6c3.3-2.8,1.4-4.8,4.2-8.4c-0.8,0.1-1.5,1.3-1.1-1.9
										c-0.2-0.1-0.5-0.5-0.7-0.7c0-0.1,0-0.1,0.1-0.2c0,0.1-0.1,0.1-0.1,0.2c-0.1-0.1-0.1-0.2,0,0.1c-0.4,0.8-0.8,1.4-1.2,1.6
										c-1.9-1.6-1.8-6.7-2.8-8.4c0.4-1.9,0.9,0.8,1.8-0.2l-1.4-2.6c1.8-0.3,3-5,4-0.6l0.1-4c1-2.4,1.4-5.6,0.7-7.6
										c0.4-1.9-2-4.8-0.6-3.1l-1.1-6.3l0.4-0.1c0.2-6.2-3-12.8,0.3-20c-0.5-2.1-1-4.3-0.5-7.8l1.6-0.7c-0.5-2.7,1.6-8.1-0.1-9.2
										c0.3-0.2,0.5-0.4,0.7-0.6c0.1-0.1,0.2-0.2,0.3-0.4l0.1-0.2l0.1-0.1l0.1-0.2c0.3-1,0.5-2.2,0.7-3.6c0.3-2.7,0.3-5.9,0.1-9
										c-0.1-3.2-0.3-6.4-0.5-9.3c-0.1-1.5-0.1-2.9-0.2-4.2c0-0.7,0-1.3,0-1.9c0-0.3,0.1-0.7,0-0.9c-0.3,0-0.5,0-0.8,0l-2.2,2.1
										c-5.4,0-11.2,0.7-18,1.7c0,0,0,0.4-0.1,0.9c0,0.4-0.1,0.9-0.1,0.9c-1.4,0.4-2.9,0.6-4.4,0.6c-0.8,0-1.6,0-2.5,0
										c-0.4,0-0.9,0-1.3-0.1l-0.3,0l-0.2,0l-0.5-0.1c-1.3-0.1-2.7-0.3-4.1-0.4c-1.4-0.1-2.9-0.2-4.3,0.1c0.3-0.7,1.8-0.7,2.8-0.4
										c-1.8-0.9-3.6-0.9-5.4-0.7c-1.8,0.3-3.5,0.9-5.2,1.5c-0.8,0.3-1.7,0.6-2.5,1c-0.8,0.3-1.6,0.6-2.5,0.9
										c-1.6,0.5-3.3,0.6-4.9,0.2c-1.4,0.9-2.5,0.9-3.7,0.6c0.1,0,0.3-0.1,0.4-0.2c-0.2,0-0.4,0-0.6,0.1c-0.7-0.2-1.5-0.4-2.3-0.5
										c0.7,0.3,1.4,0.5,2,0.6c-1.2,0.2-2.9,0.9-4.5,1.7l-1.2-1.7C192.3,9,192.2,9,192.1,9c-1.9-0.3-1.2,1.2,0.1,2.4
										c-0.8,0.5-1.5,1.1-2,1.7c-1-1.4-2.1-0.8-3.3-0.3c-1.1,0.5-2.3,1.1-3.7-0.3c-0.7,1.9-8.3,3.6-8.1,7.1
										c-0.2-0.4-0.7-0.4,0.1-0.8c-2,0.3-3.9,0.5-5.3,2l-1.6-2.1l-2.9,4.5c-2.9-0.5-4.2-0.9-2.5-3.6c-4.8,5-4.4,2.9-8.2,7.5
										l-0.4-1.6c-0.9,0.4-1.8,1.4-2.7,2.2c-0.9,0.8-1.7,1.4-2.5,1.1c-1.3-0.3-3.1,0.1-5.3,0.9c-0.6,0.2-1.1,0.4-1.7,0.6
										c-0.6,0.3-1.2,0.5-1.8,0.8c-1.2,0.6-2.6,1.2-3.9,1.9c-1.4,0.7-2.8,1.4-4.2,2.1c-1.4,0.7-2.8,1.5-4.2,2.2
										c-1.4,0.7-2.8,1.4-4.3,1.9c-1.4,0.6-2.8,1.1-4.1,1.5c4.2,2.8-5.4,1-3.8,4.3c-1.1-0.6-2.8-0.3-1.8-2c-1,1-2.1,1.7-3,2.2
										c-1,0.6-1.9,1-2.7,1.5c-1.7,0.9-3,2-3.7,4.3c-1.2-0.5,0-2-0.8-2.2c-0.2,0.5-0.9,1.8-1.8,1.6c-0.9-0.2,0.1-1.2,0.6-2.1
										c-1.1,0.9-1.9,1.7-2.4,2.6c-0.4,0.9-0.6,1.7-0.6,2.5c0.1,1.6,0.9,3,1.7,4.4c-3.2,0.6-4.2,1.6-4.5,4.5
										c-1.4-0.2-3.4,0-0.9-2.5c-0.4,0.3-1.3,0.8-2.3,1.5c-1,0.7-2.2,1.6-3.2,2.5c-2.2,1.8-3.9,3.7-3.1,4.7c-0.4,0-1,0.4-1.5,0.9
										c-0.4,0.5-0.8,1.1-0.9,1.4c-3.3,2.9-3.8,3-6.7,6.2l1.2-0.5c0.9,3.3-2.1,3-4.2,5.8L75,82.1c-3.6,2.1-4,2.9-4.4,3.7
										c-0.4,0.8-0.8,1.5-4.4,3.7l1.7,0.9c1.3,1.6-0.3,2.5-2.4,3.6c-2.2,1-4.8,2.4-5.6,4.7l1.9-0.6c-0.2,1.4-2.4,1.9-4.8,2.3
										c-2.4,0.4-5,0.6-6,1.5c-0.6,0.2,0-1.1,0.3-1.8c-5.9,4,1.5,2.2-0.9,6.6c-1.6,0-2.1-3-4.3-0.4c-0.5,0.2-0.8,0.9-1.2,2
										c-0.2,0.5-0.4,1.1-0.5,1.8c-0.2,0.7-0.3,1.4-0.5,2.1c-0.8,2.9-1.8,5.9-4.2,7.2c1.4-0.3,2.9-0.6,2.3,1.8
										c-0.8,1.6-2.8,3.2-4.5,4.9c-1.7,1.7-3.1,3.6-2.4,5.8c-0.5,0.3-0.8,0.3-1,0.2c-0.5,2.8-2.8,8.5-1.9,10.7
										c-3.5-0.3-4.5,3.9-5.3,7.7c-0.2,1-0.4,1.9-0.6,2.8c-0.2,0.9-0.4,1.7-0.6,2.3c-0.5,1.2-1.3,1.9-2.8,1.3c0,0-0.7,2-1.4,3.9
										c-0.3,1-0.7,2-0.9,2.7c-0.2,0.7-0.4,1.2-0.4,1.2l-0.5-0.4c-2.1,4.9-1.3,7.2-0.5,9.4c-0.8,1-1,0-1.3-0.2
										c-0.9,1.7-1.5,3.1-2,4.3c-0.4,1.2-0.7,2.2-0.8,3.2s-0.1,2,0,3.2c0.1,1.2,0.3,2.5,0.7,4.3l-2.1,0.2c0.4,1-1,3.5-2.4,6.8
										c-0.3,0.8-0.7,1.7-1,2.6c-0.3,0.9-0.5,1.9-0.7,2.8c-0.4,1.9-0.6,4-0.4,5.9c-0.2-0.1-0.6-0.3-0.7-1c0.1,1.1,0,2.2-0.1,3.4
										c-0.2,1.1-0.4,2.3-0.7,3.5c-0.6,2.3-1.4,4.6-2.1,6.8c-0.7,2.2-1,4.2-0.9,6c0.2,1.8,0.9,3.1,2.7,4.1c0,0,0.3,1.9,0.7,3.8
										c0.2,0.9,0.3,1.8,0.5,2.4c0.2,0.6,0.3,1.1,0.3,1.1c0.5-4.7,1.3-4.3,2.1-3.5c0.8,0.8,1.6,2,2.4,0.3c0.1,1.4-0.4,3.3-1.1,4.7
										c-0.7,1.4-1.4,2.1-1.6,0.2l0.4-0.8c-0.9,0-1.5,0.6-1.9,1.8c-0.4,1.1-0.5,2.7-0.7,4.3c-0.3,3.2-0.4,6.5-1.7,7.6l0,0.9l0,0.5
										c0.1,0,0.3,0,0.4,0l1.8,0c1.2,0,2.4,0,3.6,0.1c2.4,0,4.8,0.1,7.2,0.2c2.4,0.1,4.9,0.2,7.3,0.3l1.9,0.1l1.4,0.1
										c0.9,0.1,1.7,0.1,2.5,0.2c6.8,0.5,13.4,1.1,20,1.2l-1.5-2.9l4.6,0.2c1.2,0.7,1.6,2.3-1.6,2.2c1.7,1.7,5.5-1.4,5.5-2
										c6.4,1.2-2.5,3.4-0.5,3.5l2.7-0.2l-0.6-0.3c2.1-1.2,2.3-2.5,6.2-2.3c2.5,0.6,1.3,1.8,2.2,1.9c0,0.2,0.3,0.3,1.5,0.1
										l5.7,0.2l-2.3-2.3c2.5-1.1,5.4,0.1,2.7-2.5c3.9,4,21.4,1.4,23.8,2.7c3.6-1.7,7.1-1.7,11.4-1.5c-1.1-0.5-1.7-3.1,2-2.8
										c-1.4,5.4,6.9,2.3,9.9,6.2c-2.7-2.6,10.7-0.6,6.4-4.3c3.1,0.4,0.2,2,2.6,3.3c7.5-2.1,16.4,1.3,25.7,0.6
										c0.1-0.7-1.4-1.8,0.6-2.8l4.9,3.5c1.8-0.3,1.7-4.1,5-1.6c-0.5-0.6-1.2-1.5,0.1-1.7c18.1,3.4,36.9-2.8,55.3,3.6
										c-2.5-1.4-0.8-1.5,1.1-1.5c-1.2-0.3,0-1.7-0.2-2.7l7.7,2.6c1.4-2.6,8.2-0.2,9-2.7l-2.4,0.5c3.2-3-4.5-6.6-4.1-10.5
										c-3.6,3.4-9.6-5-15.5-0.2c-1.3-0.8,1.1-1.2,0.4-2.1c-1.5,1.6-3.3,2-6.7,1.2l0.4-0.4c-9.5,0.4-13.5-1.2-24.2-2.3l0.8,1.9
										c-2.3-0.3-2.8-0.8-3.8-1.3c-2.6,2.9,6.4,0.2,4,3.3c-3-3.9-16.1-0.1-18.2-4.4c-3.5,0,1,2.2-2.5,2.2l-0.9-1.2l-0.9,1.5
										c-2.3-0.3-3.5-1.7-3.6-2.7c0.6,0.1,1.6-0.3,2.2-0.4c-3-1.4-8.4,0.5-9.5,0l3.4,0.7c-9.6,1.1-21.3-0.4-30.6,2l0.7,0.9
										c-7.1,1.7-5.7-1-13.5-0.2l0.3-0.2c-1.6,0.9-3.6,1.3-5.8,1.2c2-1-3.7-2-1.1-3.2c-7.7,1.8-3.8,1.4-8.9,4.7l-1.2-1.5
										c-1.7,1.3-1.9,2-5.8,2.4c3.2-1.3-2.5-2.3,1.1-3.9c-8.2-3.2-12.1,3.3-15.8-1.5c-3.7,4.1,7.1,2.3,5,3.2
										c1.8,1.3-3.1,3.1-5.6,2.7c-2.6-0.1-4.4-5.3-11-5.2c0.7,0,0.7-0.3,1.3-0.3c-2.5-1-4.8,1.4-7.8-0.3c-1.7,2.5-3.9-0.1-4.4,3
										l6-0.7c-3.4,0.8-6.6,4.5-12.2,2.7c0.4-0.6,2.1-1.5,3.3-1.9c-1.6-0.9-3.2,0.6-4.9-0.3c0.5-3.2,7.3-0.7,11-3.1
										c-1.8-1.3-6.9,2.3-5.1-1.1c-2.6,4.4-6.5-0.6-10.9,2.8l0.3-1.9c-0.7,0.3-2.2,1.2-3.4,1.1l2.3-2.5c-3.6,2.1-6.9-1.8-10.4-0.7
										c7.2-0.1,1.6,2.3,4.7,3.7c-4.4,1.3-5.7,0-7.1-1.4c-0.7-0.7-1.4-1.5-2.6-2c-0.1,0-0.1-0.1-0.2-0.1c-0.1,0-0.1-0.1-0.1-0.1
										c0-0.1-0.1-0.1-0.1-0.2c-0.1-0.1-0.2-0.2-0.3-0.2c-0.2-0.1-0.5-0.1-0.8,0c0.2-0.1,0.5,0.1,0.6,0.6c0.2,0.4,0.3,1-0.1,1.4
										c-0.7-0.4-1.4-1.1-1.2-2.1c-0.9,0.2-1.3,0.7-1.4,1.3c-0.2,0.6,0,1.3-1,1.8c0.2-1.2-0.2-0.9-1.1-0.3c-0.9,0.6-2.2,1.6-3.5,2
										l1.9-1.9c-0.2,0,0-0.4,0-0.5c0-0.2,0-0.3,0-0.5c0-0.2-0.1-0.3-0.3-0.4c-0.3-0.1-0.8,0.2-1.3,0.4c-0.5,0.2-1,0.5-1.3,0.3
										c-0.3-0.2-0.3-0.8,0.1-2c0,0,0.7,0.1,1.4,0.1c0.7,0,1.4-0.1,1.4-0.1s-0.2-0.3-0.3-0.6c-0.2-0.3-0.3-0.7-0.3-0.7
										s0.6-0.1,1.1-0.3c0.6-0.2,1.1-0.4,1.1-0.4c-0.8-0.3-1.1-0.8-1.1-1.3c0-0.3,0.1-0.5,0.2-0.8c0.1-0.1,0.1-0.3,0.2-0.5
										c0.1-0.2,0.2-0.2,0.3-0.8c-1.4,0.7-3.5-0.7-3.3-4c1.3-2.1,1.7,1.4,1.8-3.2c1.1,1.2,2.5,2.4,0.6,4.2
										c0.6,0.3,1.1,1.1,1.7,1.4c0.7-1.1,0.9-2.6,0.9-3.9c0-1.4,0-2.7,0-3.5c-0.1,0.6-0.4,1.3-0.7,1.7l-1.8-6.8
										c0.8-0.9,1.3,0,1.8,0.8c0-1.3-0.8-2.4-0.7-4.4c1.5,0.7,3.1,0.9,3.5,3.7c0,0-0.2-1.6-0.5-3.2c-0.2-1.6-0.3-3.2-0.3-3.2
										c0.7-0.3,2.4-2.8,2.8-1.9c0.8-1.6,0.4-3.8,0.1-6.1c-0.2-2.3-0.3-4.8,0.8-6.9c-0.2-0.3-0.4-0.8-0.4-1.8
										c0.6-2.1,1.8-3.9,2.6-5.8c0.8-2,1.4-4.1,1-6.9l3.6-1.9c0.7-4-4.6,2.6-3.5-4c0.7-4.8,2.8-0.9,4.1-2.2
										c-0.1-0.7-0.4-1.5-0.5-2.4c-0.1-0.9-0.2-1.8-0.1-2.8c0.1-1.9,0.8-4,2.6-5.6C39.5,162.7,38.7,163.6,38.4,164.9z M60.3,120.6
										c-0.2,1-0.2,3.3-1.5,3.3C57.5,121.8,58.9,121.6,60.3,120.6z M109.4,62.6c-0.2,0.9-1.3,1.4-2.7,1.6
										C107.3,63.5,108.2,62.9,109.4,62.6z M255.6,82.1c0,0-0.1-0.1-0.1-0.1C256.3,79.8,256,80.6,255.6,82.1z M254.8,86.8
										c0.3,0.5,0.5,0.4,0.8,0.2c-0.5-0.3-0.5-1.4-0.4-2.5C254.7,84.8,254.3,85.4,254.8,86.8z M70.2,254l-0.9-0.5
										C71.3,252.9,70.7,253.4,70.2,254z"/>
									<path class="st0" d="M104.2,70c-0.4-0.1-0.7-0.3-1-0.6C103.1,69.9,103.3,70.2,104.2,70z"/>
									<path class="st0" d="M30.2,194.4c0,0,0,0.1-0.1,0.1c0.1,0.1,0.2,0.2,0.3,0.2L30.2,194.4z"/>
									<path class="st0" d="M238.4,22.2c0.3-0.7,0.6-1.4,1-1.9C238.9,20.8,238.5,21.4,238.4,22.2z"/>
									<path class="st0" d="M258,111.3l-0.5-3c0.1,1.4-0.3,1.9-0.6,2.7C257.4,110.9,258,110.4,258,111.3z"/>
									<path class="st0" d="M246.1,137c0.2,0.4,0,0.9,0.3,1.3l0.9-0.1C247.2,136.4,246.5,135.1,246.1,137z"/>
									<path class="st0" d="M251.6,114.1c-1.6,0.2-1.1,2.1-0.8,4.2c0-0.1,0-0.2,0-0.4C253.1,118.5,252.4,116.3,251.6,114.1z"/>
									<path class="st0" d="M250.9,118.7c0.1,0.6,0.1,1.3,0,1.9C251.9,120.9,251.1,119.8,250.9,118.7z"/>
									<path class="st0" d="M255.8,92.6c-0.4,1,2.1,0.6,1.4,1.2C259.3,94.9,254.7,87.3,255.8,92.6z"/>
									<polygon class="st0" points="246.3,115.7 248.3,115 246.7,113.8 									"/>
									<path class="st0" d="M247.7,99.3l-0.6,3.3c0.3-0.1,0.5,0.4,0.7,0.9C247.9,101.5,248.3,99.3,247.7,99.3z"/>
									<path class="st0" d="M247.9,103.5c0,1.1,0,2.1,0.3,2.7C248.2,105.6,248.1,104.4,247.9,103.5z"/>
									<polygon class="st0" points="245.7,111.2 246.1,110.2 246.2,107.9 									"/>
									<path class="st0" d="M248.1,63.7l-0.6-3.6c-0.7-0.4-1.1,0.6-0.8,2C247.2,62.9,247.5,64.2,248.1,63.7z"/>
									<path class="st0" d="M242.6,74.6c0.4-1,0.9-1,1.5-1.6l-2.5-0.1L242.6,74.6z"/>
									<path class="st0" d="M242.1,64c-0.7-0.4-2-5.3-1.8-0.7C240.9,63.8,241.5,67.4,242.1,64z"/>
									<path class="st0" d="M241.9,14.3l0.9-0.1l3.2-4.2c0,0-1.1,1.1-2.1,2.1C242.8,13.2,241.9,14.3,241.9,14.3z"/>
									<path class="st0" d="M197.4,29.3c4.2,0,0.4-2.7,4.3-2.3c0.4-0.5-0.4-0.7-1.2-0.7c-0.8-0.1-1.6-0.1-1.2-0.6
										C197,27.3,195.7,27,197.4,29.3z"/>
									<path class="st0" d="M199.3,25.7c0.4-0.2,0.7-0.5,1.1-0.9C199.7,25.2,199.4,25.5,199.3,25.7z"/>
									<polygon class="st0" points="238.7,256.1 241.4,256.9 239.6,255.5 									"/>
									<path class="st0" d="M244,253l0.6,2.6l1.7-2.4C245.6,253.4,244.4,253.6,244,253z"/>
									<path class="st0" d="M68.8,117.7l-0.4-0.5c-0.8-0.1-1.2,0.4-2,1.3L68.8,117.7z"/>
									<polygon class="st0" points="48.8,146.8 49.1,146.3 46.5,146.2 									"/>
									<path class="st0" d="M40,175.2c0.5-1.1,0.4-2.6,0.9-3.7C40.5,174.1,37.2,174.5,40,175.2z"/>
								</g>
							</g>
						</g>
					</g>
				</g>
			</g>
		</g>
		<g>
			<g>
				<g>
					<g>
						<g>
							<g>
								<g>
									<path class="st0" d="M245.3,236.5c1.2,0.1,0.8-1.5,1-1.8C244.2,235.1,245.3,237,245.3,236.5z"/>
									<polygon class="st0" points="225,240.3 225.4,239.6 222.4,241.3 									"/>
									<path class="st0" d="M206,240.3c1.8,2.9,6.9-0.5,10.3,0.6l0.6,0.6l1.5-2.3C214.3,239.6,208.9,241.1,206,240.3z"/>
									<path class="st0" d="M195.9,234.1c0.6,1.1-2.2,1,2.4,0.4c-0.2-0.1-0.3-0.2-0.4-0.3C197.4,234.2,196.9,234.2,195.9,234.1z"
										/>
									<path class="st0" d="M197.8,234.2C199.8,234.1,196.5,233.3,197.8,234.2L197.8,234.2z"/>
									<path class="st0" d="M188.6,234.8l2.6-1c-0.5-0.7-2.9-0.8-2-1.3C186.5,233.1,187.1,233.8,188.6,234.8z"/>
									<path class="st0" d="M186.1,236.9l1.4-0.4C187.2,236.2,186.9,236.1,186.1,236.9z"/>
									<path class="st0" d="M190.4,235.6l-2.9,0.9c0.4,0.5,0.4,1.4,1.3-0.3C188.6,237,189.1,236.2,190.4,235.6z"/>
									<path class="st0" d="M192,236c1.5,0.6,3.4,1,0.7,2C197.8,237.6,197,235.6,192,236z"/>
									<path class="st0" d="M205.1,243.3l2,0.8l1.7-1C207.9,243.6,204.9,242.4,205.1,243.3z"/>
									<path class="st0" d="M172.2,233.4c-0.2,0.6,0.9,1.6,1.1,2.4l1.9-0.7C174.2,234.6,172.3,234.2,172.2,233.4z"/>
									<path class="st0" d="M173.3,235.7l-2.9,1C173,236.9,173.5,236.4,173.3,235.7z"/>
									<polygon class="st0" points="185.6,240.1 190.4,237.9 184.7,240.1 									"/>
									<polygon class="st0" points="161.1,233.3 162.7,231.9 159.8,234 									"/>
									<path class="st0" d="M153.7,233.5c1.2-1.2-1.7-2-0.4-2.7c-2,0.2-3.7,1.2-5.3,2.1C149.7,232.4,151.5,232.6,153.7,233.5z"/>
									<path class="st0" d="M145.5,234.2c0.8-0.3,1.7-0.8,2.6-1.3C147.2,233.2,146.4,233.6,145.5,234.2z"/>
									<path class="st0" d="M165.4,236.5c-0.2-0.4-0.7-1.3-2.3-1.7l1.1,1.7C164.6,236.5,165,236.5,165.4,236.5z"/>
									<path class="st0" d="M164.3,236.5L164.3,236.5c-1.3-0.1-2.1-0.1-2.5-0.1C162.1,236.4,162.9,236.4,164.3,236.5z"/>
									<path class="st0" d="M165.7,236.5c-0.1,0-0.2,0-0.3,0C165.5,236.7,165.6,236.7,165.7,236.5z"/>
									<path class="st0" d="M178,238.5c-1.7,1-5.3,2-1.8,3.4C177.4,240.8,175.4,240,178,238.5z"/>
									<path class="st0" d="M167.1,238.6l3.1,0.4c-0.1-0.5-0.6-1.1,0.2-1.6L167.1,238.6z"/>
									<polygon class="st0" points="165.6,239.2 167.1,238.6 166,238.5 									"/>
									<path class="st0" d="M150.8,235.9c-1.3,0.7-2.8,0.8-4.4,0.9c1.8,0.3,3.6,0.5,5.3,0.5C151.9,236.8,152.7,235.8,150.8,235.9z
										"/>
									<path class="st0" d="M157.4,236.3c-0.1,0-0.2,0.1-0.3,0.1C157.3,236.6,157.4,236.6,157.4,236.3z"/>
									<path class="st0" d="M130.1,236.8c0.1,0.1,0.2,0.2,0.3,0.3c0-0.1,0-0.2,0.1-0.3L130.1,236.8z"/>
									<path class="st0" d="M152,237.6c1.3,0.3,2.1-0.1,2.9-0.6c-1,0.2-2,0.3-3.2,0.3C151.6,237.5,151.6,237.7,152,237.6z"/>
									<path class="st0" d="M141,235c0.7,0.4,1.5,0.7,2.3,0.9C142.6,235.4,141.2,234.6,141,235z"/>
									<path class="st0" d="M156.6,235.9c0.1,0,0.1-0.1,0.2-0.1C156.4,235.5,156.4,235.7,156.6,235.9z"/>
									<path class="st0" d="M156.6,235.9c-0.7,0.2-1.2,0.7-1.8,1c0.8-0.1,1.6-0.3,2.2-0.6C156.9,236.3,156.7,236.1,156.6,235.9z"
										/>
									<path class="st0" d="M125.2,247.7c0.2-1.6,3.7-3,6.7-1.3c3-1.2,1-6.4-1.6-9.3c-0.1,0.7-0.1,1.3-3.1,2.3
										c1.1,0.9,6.8,2,4.2,3.5c-4,0.8-3.3-0.6-5.3-1.4c1.7,2-5.1,2.9-4.3,5.8l3.5-1C125.5,246.6,124.2,247.3,125.2,247.7z"/>
									<path class="st0" d="M136.2,237.2l1.3-0.2c-1.4-0.3-2.5-0.9-4.3-2.1c-2.1,0.8-2.5,1.4-2.7,1.9l6.2,0.2L136.2,237.2z"/>
									<path class="st0" d="M143.1,237c-1,1.7-4,2.5-2.2,4.3c3.7-0.1,2.6-1.4,4.8-2.2c-6,0.4,1.7-1-2.6-1.9
										c1.2-0.3,2.2-0.4,3.2-0.5c-1.1-0.2-2.1-0.5-3.1-0.8c0.1,0,0.1,0.1,0.1,0.1l0,0c0,0,0,0,0,0c0.3,0.2,0.3,0.3,0.1,0.2
										c0,0-0.1,0-0.1,0C143.3,236.6,143.2,236.8,143.1,237c-1.7-0.4-0.3-0.5,0.3-0.7c0-0.1,0.1-0.2,0.1-0.3c0,0,0,0,0,0l-6,0.9
										C138.7,237.3,140.3,237.2,143.1,237z"/>
									<path class="st0" d="M173,245.7c-0.2-0.2-0.2-0.3-0.2-0.4C172.4,245.5,172.3,245.6,173,245.7z"/>
									<path class="st0" d="M170.6,244.6c0.4-0.2,0.8-0.9,2.2-0.8c1.2,0.5,0,0.8,0.1,1.4c0.8-0.5,3-1.2,0.3-2.1l-0.4,0.2
										c-2.4-0.6-5.5-2.7-5.1-3C168.3,242,169,243.1,170.6,244.6z"/>
									<path class="st0" d="M156.7,241.3l-5,0.8l2.5,1.5l-0.1-0.9C156.9,243.1,156.3,242,156.7,241.3z"/>
									<polygon class="st0" points="129.6,235.9 130.2,234.1 127.3,236.7 									"/>
									<polygon class="st0" points="123.1,236.1 123.3,234.5 121.6,235.5 									"/>
									<path class="st0" d="M142.7,444.5l1.5,0.2C143.5,444.6,143,444.5,142.7,444.5z"/>
									<path class="st0" d="M133.9,439.5l-0.6,0.5C133.9,439.9,134.2,439.7,133.9,439.5z"/>
									<path class="st0" d="M8.3,296.4c-1,2.5-2.6,5.4-0.9,4.8l1.5-1C8.2,298.6,8.2,297.4,8.3,296.4z"/>
									<path class="st0" d="M64.3,391.3c0-0.3,0-0.5,0-0.8c-0.8,0-1.5-0.1-2.2-0.1C62.7,390.7,63.5,391,64.3,391.3z"/>
									<path class="st0" d="M70.8,388c0,0,0.2,0.7,0.4,1.4c0.1,0.4,0.2,0.7,0.3,1c0.1,0.3,0.1,0.4,0.1,0.4
										C71.5,390.1,71.3,389.2,70.8,388z"/>
									<path class="st0" d="M194.8,462l2-1.4C194.3,460.1,195.2,461.2,194.8,462z"/>
									<path class="st0" d="M57,236.8c-1.8-0.7-3.3-1-4.6-1C54.7,236.7,56.4,238.2,57,236.8z"/>
									<path class="st0" d="M130.3,458.8c0.9,0.2,1.5,0,1.6-0.3C131,458.4,130.3,458.3,130.3,458.8z"/>
									<path class="st0" d="M47.2,235.7c0.3,0.2,0.6,0.3,1,0.4c1.3-0.3,2.7-0.5,4.3-0.4C50.8,235,49,234.5,47.2,235.7z"/>
									<path class="st0" d="M236.4,324.9c0.1-0.2,0.1-0.3,0.2-0.5C236.3,324.4,236.3,324.6,236.4,324.9z"/>
									<path class="st0" d="M253.9,264c0.1,0.6,0.1,1.6,0.1,2.5C254.1,266,254.1,265.3,253.9,264z"/>
									<path class="st0" d="M97.1,235.4C98.5,235.3,97.4,235.2,97.1,235.4L97.1,235.4z"/>
									<path class="st0" d="M103.8,242.2c-0.3,0.2-0.5,0.4-0.5,0.8C103.4,242.7,103.6,242.4,103.8,242.2z"/>
									<path class="st0" d="M33.5,246.5c0,0-0.1,0-0.1,0C33.8,246.9,33.8,246.8,33.5,246.5z"/>
									<path class="st0" d="M99.2,236.2c-0.5-0.2-1.1-0.4-1.8-0.5C97.7,235.8,98.3,235.9,99.2,236.2z"/>
									<path class="st0" d="M98.9,235.3c0.5,0.1,0.8,0.1,1.2,0.2C100.3,235.2,100.1,235,98.9,235.3z"/>
									<path class="st0" d="M95.2,235.5c0.8,0,1.5,0.1,2.2,0.2c-0.3-0.1-0.4-0.2-0.3-0.3C96.7,235.4,96.2,235.4,95.2,235.5z"/>
									<path class="st0" d="M241,437c0.1-0.1,0.1-0.2,0.2-0.3C240.5,435.3,240.6,435.9,241,437z"/>
									<path class="st0" d="M35.6,325.6c0-0.1-0.1-0.1-0.1-0.1c0,0.1,0,0.1,0,0.2L35.6,325.6z"/>
									<path class="st0" d="M38.5,329.6c-2.7-1.1-2.9-2.3-3.1-3.8l-4.1,3.3c0,0,1.8,0.2,3.6,0.3C36.7,329.4,38.5,329.6,38.5,329.6
										z"/>
									<path class="st0" d="M164.9,454.1l-2.5-2.7c4.6-0.9,6.9,0.9,4.9-2.2c-1.2,2.4-4.2,1.4-7.2,0.4c-2.9-1.2-5.9-2.4-7.2,0
										l-1.5-1.9c0.5,0.3,0.8,0.1,1.3,0.4c-2.7-4.1-4.5,2.2-9.1-1c-1.5-1.2-2.3-2.5-0.9-2.5c0,0-1.1-0.2-2.2-0.4
										c-1.1-0.2-2.2-0.4-2.2-0.4c-1-0.7-0.3-1.4,0.7-0.7l-5.8-2.9l0.1-0.1c-1.2,0.3-3.7,0.4-4.9,0.3c-1-1.6,1,0,1-0.9
										c0,0-0.2,0-0.6-0.1c-0.4-0.1-0.8-0.2-1.3-0.3c-0.9-0.2-1.9-0.4-1.9-0.4c-0.5-2,2.7-1.5,4.8,0c0-3.2-0.8-3.3-2.2-3.4
										c-1.4-0.1-3.3-0.3-5.5-3.6l3.2,1.2c-0.1-1.9-0.8-2.9-1.8-4c-1-1-2.1-2.2-3.1-4c0.1,0.7,0.9,2.7,1.3,4.5
										c0.4,1.8,0.3,3.2-1.7,2.7c-0.7-1-1.7-2-4.1-2.3c1.1-1.6-0.8-2.4-3-3.8l1.7-2c-1.3-0.5-2.1-0.5-2.9-0.3
										c-0.7,0.1-1.4,0.4-2.4,0.4c-2.3-2.1-1.6-4.1-1.1-5.8c-3.6-3.3,0.7,4.6-4.2,1.4c-2.6-3.4-5.3-4.5-10.1-6.6
										c-1.5-2.7,1.4-0.8,1.2-2.1l-3.2-0.3c-0.4-0.5,0.2-0.8,0.4-0.9c-2.1-0.9-1.9,1.7-4.8-0.1c-1.3,0.7-1.9-1.3-2.7-3.5
										c-0.8-2.3-1.9-4.8-4.5-5.2c-0.2-1.2,1.5-0.7,2-1.6c-1.4-0.7-2.4-1.2-3.1-1.6c-0.7-0.4-1.3-0.7-1.8-1
										c-1.1-0.5-2.1-0.9-4.8-1.8l-1.4-4.2c0.2,1.7-0.7,2.3-2.2,2.2c-1.5-0.1-3.4-0.9-5.2-1.7c-0.1,1.4-0.1,2.7,0,3.4l-4.5-3.5
										c-0.1-0.8,1-0.9,2.4-0.8c-0.4-0.2-0.8-0.3-1.1-0.4c-0.5-2.1,1.3-2.2,3.3-2c0,0.8,0,1.7,0,2.5c2.1,0.1,4.2,0,5.2-1.2
										c-0.4-0.1-1.1-0.5-1.6-1c0.5,0,1-0.1,1.1-0.3c0.1-0.3-0.7-0.4-1.7-0.7l1.5-2.7l-1.1,0.5c0,0-0.7-1.6-1.4-3.3
										c-0.4-0.8-0.7-1.7-0.9-2.3c-0.2-0.6-0.4-1-0.4-1c-2.6-1.2-5.4-2.1-8.3-3.4c-2.8-1.4-5.6-3.3-8.3-6.4
										c2.9,0.6,3.1-1.4,5.3-2.7c-0.5,1.6,0.5,2.8,2,4c1.4,1.2,3.1,2.5,4.1,4.3c-1-1.9,0.2-2.2,0.9-2c0,0-0.4-0.3-0.9-0.7
										c-0.6-0.5-1.3-1.1-2-1.7c-1.5-1.2-3-2.4-3-2.4c1.8-0.9,0.4-2.1,0.1-4.2c-2.7,3.4-5-3.3-7.6-5.3c1.1-0.8,2.6-0.9,4.2,2.4
										c0.3-2.5-1.3-3-3.1-3.5c-1.7-0.5-3.5-1-3.3-3.4c0.4,0.8,0.5,1.3,1.2,1.3c-2-1.3-3.5-6.3-1.9-5.8l0.4,0.8
										c-0.6-1.4-1.4-3.1-2.3-4.8c-0.9-1.8-1.8-3.6-2.8-5.3c-1-1.7-2.1-3.1-3.1-4.2c-1-1-1.9-1.7-2.8-1.5c0.4-0.2,4.1-0.8,4.8-0.8
										c0,0-3.6-1.3-7.2-2.8c-1.8-0.7-3.7-1.5-5-2.1c-0.7-0.3-1.3-0.5-1.7-0.7c-0.4-0.2-0.6-0.3-0.6-0.3c1.5,0,3.6-1.5,5.7-2.5
										c2.1-0.9,4.2-1.3,5.9,0.6c-0.1-0.7-0.2-1.5-0.4-2.5c-0.3-0.9-0.8-2-1.7-3.2c-0.1,1-3.2,3.7-3.9,2.5c1.9-4.5,0.8-3,2-8
										c-0.1,0.8-1.3,1.1-2.6,1c-1.3-0.1-2.7-0.7-2.9-1.9c0.8,0.1,4.3-1.5,5-0.8c0,0-1.5-1-2.9-2.1c-1.5-1.1-2.9-2.1-2.9-2.1
										c1.2,1.2,3.7-0.8,4.6-2.3c-0.7,0.8-1.3-4.7-2-6l-0.5,2.6c-0.4-3.2-2.3-4.3-4.2-5.5c-1-0.6-2-1.2-2.8-2
										c-0.8-0.9-1.5-1.9-1.7-3.6c1.1,0.6,5.9,0.7,5.9-2.5c-1.3-0.5-4.3-1.6-7.3-3.3c-1.5-0.9-3.1-1.9-4.4-3
										c-1.3-1.2-2.3-2.5-3-3.9l1.2-1.3l-2.1-4.3c1.9,1.2,4.9,3.5,7.8,5.9c2.9,2.4,6,4.9,7.7,6.6c0.6-2.5,1.4-0.9,0.7-4.4
										c1-1.4,2.2,1.6,2.4,2.6c0,0-0.2-2-0.3-4.1c-0.1-2-0.1-4.1-0.1-4.1c-2.6,0.7-3.5-5.9-5.7-5.3l3.9,8.6
										c-1.3,0.4-3.4-0.6-5.1-2.5c-1.7-1.9-3.3-4.7-3.3-7.7c1-1.6,4.9,0.7,5.7,0.4c-1-0.7-2.2-5.4-1.6-6l1.6,2.4
										c0.2-0.8,0-1.6-0.3-2.3c-0.1-0.3-0.3-0.7-0.5-1c-0.2-0.2-0.4-0.3-0.6-0.5c-0.4-0.4-0.7-0.8-0.8-1.3c-0.1-0.5,0.1-1,0.7-1.3
										c0.1-0.3,1-0.5,1.6-0.6c0.7,0,1.1,0,0.3-0.6c-1.6-0.5-4.8-1.6-7.9-2.9c-3.1-1.2-6.1-2.8-7.3-4.5c0.1-0.3,0.8-2.4,1.6-4.1
										c0.4-0.9,0.9-1.7,1.4-2.2l0.2-0.2c0.1,0,0.3,0.1,0.5,0.1c0.3,0.1,0.7,0.2,0.9,0.3c0.6,0.2,1.1,0.4,1.5,0.6
										c2.3,1.2,2.6,2.6,3.2,4c0.2,0.3,0.3,0.7,0.5,1c0.2,0.4,0.4,0.6,0.8,1.1c0.3,0.4,0.7,0.7,1,1c0.2,0.1,0.3,0.2,0.4,0.4
										c0.1,0.1,0.3,0.2,0.5,0.3c-0.7-0.7-0.8-1.6-0.7-1.9c0.8,0.3,1.2,0.9,1.6,1.3c0.4,0.4,0.9,0.8,1.6,0.6
										c-0.9-1.4,0.3-1.3,0.9-1.2c0.3,0,0.5,0.1,0.4,0c-0.2-0.1-0.6-0.4-1.9-1c0.9-0.4,1.6-0.2,2.3,0c0.7,0.2,1.5,0.5,2.7,0.5
										c-0.6-0.9-0.4-2.4,0.8-3.8c0.6-0.7,1.4-1.3,2.2-1.9c0.8-0.5,1.7-0.9,2.5-1.1c-0.2,0.7,0.5,1.6,0.9,2
										c6.4,0.2,9.9,1.5,15.8,1.5c0.6,0.7,3.4,1.5,2.2,2.6c0.9-0.5,1.7-1.4,3.5-1.5c3.6,2.4-4.1,0.4-1.4,3.2
										c0.2-1.6,4.8-2.2,7.4-3.2c-0.8-2.4-6.1-0.5-8.7,0.5c0-3.4,4.6-6.9,10.8-8.5c5-0.8,2.2,2.2,3,1.7c9.3,0.6,8-5.9,15.7-3.5
										c3.1,2.2,0.1,4.3,0.8,5.8c-4,0.8-6.2-1.4-9-1.3l3.4,1c-1.3,0.7-4,1.3-5.5,0.6c2.6,1.9,15.8,0.4,23,2.2
										c1.3-0.7,3.5-1.5,2.4-2.3l-2.3,0.3c-2.1-1.7,4.3-2.4,1.4-3.2c3.1-1.2,6.5-3.1,10.8-2.2l0.8,2.5c-0.1-0.7-2.8-1.5-4-0.7
										c1.8-1.1,6.6,3.3,8.6,0.1l-3-1.7c3.1-1.2,6.9-3.8,10.7-3.1c-1.7-2.4-0.9,0.3-3.6-2.6c2.3,3.5-9.8-0.1-6,3.6
										c-2.8-3.3-4.8-1.4-8.4-4.2c0.1,0.8,1.3,1.5-1.9,1.1c-0.1,0.2-0.5,0.5-0.7,0.7c-0.1,0-0.1,0-0.2-0.1c0.1,0,0.1,0.1,0.2,0.1
										c-0.1,0.1-0.2,0.1,0.1,0c0.8,0.4,1.4,0.8,1.6,1.2c-1.6,1.9-6.7,1.8-8.4,2.8c-1.9-0.4,0.8-0.9-0.2-1.8l-2.6,1.4
										c-0.3-1.8-5-3-0.6-4l-4-0.1c-2.4-1-5.6-1.4-7.6-0.7c-1.9-0.4-4.8,2-3.1,0.6l-6.3,1.1l-0.1-0.4c-6.2-0.2-12.8,3-20-0.3
										c-2.1,0.5-4.3,1-7.8,0.5l-0.7-1.6c-2.7,0.5-8.1-1.6-9.2,0.1c-0.2-0.3-0.4-0.5-0.6-0.7c-0.1-0.1-0.2-0.2-0.4-0.3l-0.2-0.1
										l-0.1-0.1l-0.2-0.1c-1-0.3-2.2-0.5-3.6-0.7c-2.7-0.3-5.9-0.3-9-0.1c-3.2,0.1-6.4,0.3-9.3,0.5c-1.5,0.1-2.9,0.1-4.2,0.2
										c-0.7,0-1.3,0-1.9,0c-0.3,0-0.7-0.1-0.9,0c0,0.3,0,0.5,0,0.8l2.1,2.2c0,5.4,0.7,11.2,1.7,18c0,0,0.4,0,0.9,0.1
										c0.4,0,0.9,0.1,0.9,0.1c0.4,1.4,0.6,2.9,0.6,4.4c0,0.8,0,1.6,0,2.5c0,0.4,0,0.9-0.1,1.3l0,0.3l0,0.2l-0.1,0.5
										c-0.1,1.3-0.3,2.7-0.4,4.1c-0.1,1.4-0.2,2.9,0.1,4.3c-0.7-0.3-0.7-1.8-0.4-2.8c-0.9,1.8-0.9,3.6-0.7,5.4
										c0.3,1.8,0.9,3.5,1.5,5.2c0.3,0.8,0.6,1.7,1,2.5c0.3,0.8,0.6,1.6,0.9,2.5c0.5,1.6,0.6,3.3,0.2,4.9c0.9,1.4,0.9,2.5,0.6,3.7
										c0-0.1-0.1-0.3-0.2-0.4c0,0.2,0,0.4,0.1,0.6c-0.2,0.7-0.4,1.5-0.5,2.3c0.3-0.7,0.5-1.4,0.6-2c0.2,1.2,0.9,2.9,1.7,4.5
										l-1.7,1.2c0.1,0.1,0.1,0.2,0.1,0.4c-0.3,1.9,1.2,1.2,2.4-0.1c0.5,0.8,1.1,1.5,1.7,2c-1.4,1-0.8,2.1-0.3,3.3
										c0.5,1.1,1.1,2.3-0.3,3.7c1.9,0.7,3.6,8.3,7.1,8.1c-0.4,0.2-0.4,0.7-0.8-0.1c0.3,2,0.5,3.9,2,5.3l-2.1,1.6l4.5,2.9
										c-0.5,2.9-0.9,4.2-3.6,2.5c5,4.8,2.9,4.4,7.5,8.2l-1.6,0.4c0.4,0.9,1.4,1.8,2.2,2.7c0.8,0.9,1.4,1.7,1.1,2.5
										c-0.3,1.3,0.1,3.1,0.9,5.3c0.2,0.6,0.4,1.1,0.6,1.7c0.3,0.6,0.5,1.2,0.8,1.8c0.6,1.2,1.2,2.6,1.9,3.9
										c0.7,1.4,1.4,2.8,2.1,4.2c0.7,1.4,1.5,2.8,2.2,4.2c0.7,1.4,1.4,2.8,1.9,4.3c0.6,1.4,1.1,2.8,1.5,4.1c2.8-4.2,1,5.4,4.3,3.8
										c-0.6,1.1-0.3,2.8-2,1.8c1,1,1.7,2,2.2,3c0.6,1,1,1.9,1.5,2.7c0.9,1.6,2,3,4.3,3.7c-0.5,1.2-2,0-2.2,0.8
										c0.5,0.2,1.8,0.9,1.6,1.8c-0.2,0.9-1.2-0.1-2.1-0.6c0.9,1.1,1.7,1.9,2.6,2.4c0.9,0.4,1.7,0.6,2.5,0.6
										c1.6-0.1,3-0.9,4.4-1.7c0.6,3.2,1.6,4.2,4.5,4.5c-0.2,1.4,0,3.4-2.5,0.9c0.3,0.4,0.8,1.3,1.5,2.3c0.7,1,1.6,2.2,2.5,3.2
										c1.8,2.2,3.7,3.9,4.7,3.1c0,0.4,0.4,1,0.9,1.5c0.5,0.4,1.1,0.8,1.4,0.9c2.9,3.3,3,3.8,6.2,6.7l-0.5-1.2
										c3.3-0.9,3,2.1,5.8,4.2l-0.3,0.2c2.1,3.6,2.9,4,3.7,4.4c0.8,0.4,1.5,0.8,3.7,4.4l0.9-1.7c1.6-1.3,2.5,0.3,3.6,2.4
										c1,2.2,2.4,4.8,4.7,5.6l-0.6-1.9c1.4,0.2,1.9,2.4,2.3,4.8c0.4,2.4,0.6,5,1.5,6c0.2,0.6-1.1,0-1.8-0.3
										c4,5.9,2.2-1.5,6.6,0.9c0,1.6-3,2.1-0.4,4.3c0.2,0.5,0.9,0.8,2,1.2c0.5,0.2,1.1,0.4,1.8,0.5c0.7,0.2,1.4,0.3,2.1,0.5
										c2.9,0.8,5.9,1.8,7.2,4.2c-0.3-1.4-0.6-2.9,1.8-2.3c1.6,0.8,3.2,2.8,4.9,4.5c1.7,1.7,3.6,3.1,5.8,2.4
										c0.3,0.5,0.3,0.8,0.2,1c2.8,0.5,8.5,2.8,10.7,1.9c-0.3,3.5,3.9,4.5,7.7,5.3c1,0.2,1.9,0.4,2.8,0.6c0.9,0.2,1.7,0.4,2.3,0.6
										c1.2,0.5,1.9,1.3,1.3,2.8c0,0,2,0.7,3.9,1.4c1,0.3,2,0.7,2.7,0.9c0.7,0.2,1.2,0.4,1.2,0.4l-0.4,0.5
										c4.9,2.1,7.2,1.3,9.4,0.5c1,0.8,0,1-0.2,1.3c1.7,0.9,3.1,1.5,4.3,2c1.2,0.4,2.2,0.7,3.2,0.8c1,0.1,2,0.1,3.2,0
										c1.2-0.1,2.5-0.3,4.3-0.7l0.2,2.1c1-0.4,3.5,1,6.8,2.4c0.8,0.4,1.7,0.7,2.6,1c0.9,0.3,1.9,0.5,2.8,0.7
										c1.9,0.4,4,0.6,5.9,0.4c-0.1,0.2-0.3,0.6-1,0.7c1.1-0.1,2.2,0,3.4,0.1c1.1,0.2,2.3,0.4,3.5,0.7c2.3,0.6,4.6,1.4,6.8,2.1
										c2.2,0.7,4.2,1,6,0.9c1.8-0.2,3.1-0.9,4.1-2.7c0,0,1.9-0.3,3.8-0.7c0.9-0.2,1.8-0.3,2.4-0.5c0.6-0.1,1.1-0.3,1.1-0.3
										c-4.7-0.5-4.3-1.3-3.5-2.1c0.8-0.8,2-1.6,0.3-2.4c1.4-0.1,3.3,0.4,4.7,1.1c1.4,0.7,2.1,1.4,0.2,1.6l-0.8-0.4
										c0,0.9,0.6,1.5,1.8,1.9c1.1,0.4,2.7,0.5,4.3,0.7c3.2,0.3,6.5,0.4,7.6,1.7l0.9,0l0.5,0c0-0.1,0-0.3,0-0.4l0-1.8
										c0-1.2,0-2.4,0.1-3.6c0-2.4,0.1-4.8,0.2-7.2c0.1-2.4,0.2-4.9,0.3-7.3l0.1-1.9l0.1-1.4c0.1-0.9,0.1-1.7,0.2-2.5
										c0.5-6.8,1.1-13.4,1.2-20l-2.9,1.5l0.2-4.6c0.7-1.2,2.3-1.6,2.2,1.6c1.7-1.7-1.4-5.5-2-5.5c1.2-6.4,3.4,2.5,3.5,0.5
										l-0.2-2.6l-0.3,0.6c-1.2-2.1-2.5-2.3-2.3-6.2c0.6-2.5,1.8-1.3,1.9-2.2c0.2,0,0.3-0.3,0.1-1.5l0.2-5.7l-2.3,2.3
										c-1.1-2.5,0.1-5.4-2.5-2.7c4-3.9,1.4-21.4,2.7-23.8c-1.7-3.6-1.7-7.1-1.5-11.4c-0.5,1.1-3.1,1.7-2.8-2
										c5.4,1.4,2.3-6.9,6.2-9.9c-2.6,2.7-0.6-10.7-4.3-6.4c0.4-3.1,2-0.2,3.3-2.6c-2.1-7.5,1.3-16.4,0.6-25.7
										c-0.7-0.1-1.8,1.4-2.8-0.6l3.5-4.9c-0.3-1.8-4.1-1.7-1.6-5c-0.6,0.5-1.5,1.2-1.7,0c3.4-18.1-2.8-36.9,3.6-55.3
										c-1.4,2.5-1.5,0.8-1.6-1.1c-0.3,1.2-1.7,0-2.7,0.2l2.6-7.7c-2.6-1.4-0.2-8.2-2.7-9l0.5,2.4c-3-3.2-6.6,4.5-10.5,4.1
										c3.4,3.6-5,9.6-0.2,15.5c-0.8,1.3-1.2-1.1-2.1-0.4c1.6,1.5,2,3.3,1.2,6.7l-0.4-0.4c0.4,9.5-1.2,13.5-2.3,24.2l1.9-0.8
										c-0.3,2.3-0.8,2.8-1.3,3.8c2.9,2.6,0.2-6.4,3.3-4c-3.9,3-0.1,16.1-4.4,18.2c0,3.5,2.2-1,2.2,2.5l-1.2,0.9l1.5,0.9
										c-0.3,2.3-1.7,3.5-2.7,3.6c0.1-0.6-0.3-1.6-0.4-2.2c-1.4,3,0.5,8.4,0,9.5l0.7-3.4c1.1,9.6-0.4,21.3,2,30.6l0.9-0.7
										c1.7,7.1-1,5.7-0.2,13.5l-0.2-0.3c0.9,1.6,1.3,3.6,1.2,5.8c-1-2-2,3.7-3.2,1.1c1.8,7.7,1.4,3.8,4.7,8.9l-1.5,1.2
										c1.3,1.7,2,1.9,2.4,5.8c-1.3-3.2-2.3,2.5-3.9-1.1c-3.2,8.2,3.3,12.1-1.5,15.8c4.1,3.7,2.3-7.1,3.2-5
										c1.3-1.8,3.1,3.1,2.7,5.6c-0.1,2.6-5.3,4.4-5.2,11c0-0.7-0.3-0.7-0.3-1.3c-1,2.5,1.4,4.8-0.3,7.8c2.5,1.7-0.1,3.9,3,4.4
										l-0.7-6c0.8,3.4,4.5,6.6,2.7,12.2c-0.6-0.4-1.5-2.1-1.9-3.3c-0.9,1.6,0.6,3.2-0.3,4.9c-3.2-0.5-0.7-7.3-3.1-11
										c-1.3,1.8,2.3,6.9-1.1,5.1c4.4,2.6-0.6,6.5,2.8,10.9l-1.9-0.3c0.3,0.7,1.2,2.2,1.1,3.4l-2.5-2.3c2.1,3.6-1.8,6.9-0.7,10.4
										c-0.1-7.2,2.3-1.6,3.7-4.7c1.3,4.4,0,5.7-1.4,7.1c-0.7,0.7-1.5,1.4-2,2.6c0,0.1-0.1,0.1-0.1,0.2c0,0.1-0.1,0.1-0.1,0.1
										c-0.1,0-0.1,0.1-0.2,0.1c-0.1,0.1-0.2,0.2-0.2,0.3c-0.1,0.2-0.1,0.5,0,0.8c-0.1-0.2,0.1-0.5,0.6-0.6c0.4-0.2,1-0.3,1.4,0.1
										c-0.4,0.7-1.1,1.4-2.1,1.2c0.2,0.9,0.7,1.3,1.3,1.4c0.6,0.2,1.3,0,1.8,1c-1.2-0.2-0.9,0.2-0.3,1.1c0.6,0.9,1.6,2.2,2,3.5
										l-1.9-1.9c0,0.2-0.4,0-0.5,0c-0.2,0-0.3,0-0.5,0c-0.2,0-0.3,0.1-0.4,0.3c-0.1,0.3,0.2,0.8,0.4,1.3c0.2,0.5,0.5,1,0.3,1.3
										c-0.2,0.3-0.8,0.3-2-0.1c0,0,0.1-0.7,0.1-1.4c0-0.7-0.1-1.4-0.1-1.4s-0.3,0.2-0.6,0.3c-0.3,0.2-0.7,0.3-0.7,0.3
										s-0.1-0.6-0.3-1.1c-0.2-0.6-0.4-1.1-0.4-1.1c-0.3,0.8-0.8,1.1-1.3,1.1c-0.3,0-0.5-0.1-0.8-0.2c-0.1-0.1-0.3-0.1-0.5-0.2
										c-0.2-0.1-0.2-0.2-0.8-0.3c0.7,1.4-0.7,3.5-4,3.3c-2.1-1.3,1.4-1.7-3.2-1.8c1.2-1.1,2.4-2.5,4.2-0.6
										c0.3-0.6,1.1-1.1,1.4-1.7c-1.1-0.7-2.6-0.9-3.9-0.9c-1.4,0-2.7,0-3.5,0c0.6,0.1,1.3,0.4,1.7,0.7l-6.8,1.8
										c-0.9-0.9,0-1.3,0.8-1.8c-1.3,0-2.4,0.8-4.4,0.7c0.7-1.5,0.9-3.1,3.7-3.5c0,0-1.6,0.2-3.2,0.5c-1.6,0.2-3.2,0.3-3.2,0.3
										c-0.3-0.7-2.8-2.4-1.9-2.8c-1.6-0.8-3.8-0.4-6.1-0.1c-2.3,0.2-4.8,0.3-6.9-0.8c-0.3,0.2-0.8,0.4-1.8,0.4
										c-2.1-0.6-3.9-1.8-5.8-2.6c-2-0.8-4.1-1.4-6.9-1l-1.9-3.6c-4-0.7,2.6,4.6-4,3.5c-4.8-0.7-0.9-2.8-2.2-4.1
										c-0.7,0.1-1.5,0.4-2.4,0.5c-0.9,0.1-1.8,0.2-2.8,0.1c-1.9-0.1-4-0.8-5.6-2.6C162.7,453,163.6,453.8,164.9,454.1z
										 M120.6,432.2c1,0.2,3.3,0.2,3.3,1.5C121.8,435,121.6,433.7,120.6,432.2z M62.6,383.1c0.9,0.2,1.4,1.3,1.6,2.7
										C63.5,385.2,62.9,384.4,62.6,383.1z M82.1,236.9c0,0-0.1,0.1-0.1,0.1C79.8,236.3,80.6,236.6,82.1,236.9z M86.8,237.8
										c0.5-0.3,0.4-0.5,0.2-0.8c-0.3,0.5-1.4,0.5-2.5,0.4C84.8,237.9,85.4,238.2,86.8,237.8z M254,422.4l-0.5,0.9
										C252.9,421.2,253.4,421.8,254,422.4z"/>
									<path class="st0" d="M70,388.3c-0.1,0.4-0.3,0.7-0.6,1C69.9,389.4,70.2,389.2,70,388.3z"/>
									<path class="st0" d="M194.4,462.3c0,0,0.1,0,0.1,0.1c0.1-0.1,0.2-0.2,0.2-0.3L194.4,462.3z"/>
									<path class="st0" d="M22.2,254.1c-0.7-0.3-1.4-0.6-1.9-1C20.8,253.6,21.4,254,22.2,254.1z"/>
									<path class="st0" d="M111.3,234.5l-3,0.5c1.4-0.1,1.9,0.3,2.7,0.6C110.9,235.2,110.4,234.5,111.3,234.5z"/>
									<path class="st0" d="M137,246.4c0.4-0.2,0.9,0,1.3-0.3l-0.1-0.9C136.4,245.3,135.1,246.1,137,246.4z"/>
									<path class="st0" d="M114.1,240.9c0.2,1.6,2.1,1.1,4.2,0.8c-0.1,0-0.2,0-0.4,0C118.5,239.4,116.3,240.2,114.1,240.9z"/>
									<path class="st0" d="M118.7,241.6c0.6-0.1,1.3-0.1,1.9,0C120.9,240.7,119.8,241.4,118.7,241.6z"/>
									<path class="st0" d="M92.6,236.7c1,0.4,0.6-2.1,1.2-1.4C94.9,233.2,87.3,237.8,92.6,236.7z"/>
									<polygon class="st0" points="115.7,246.3 115,244.3 113.8,245.9 									"/>
									<path class="st0" d="M99.3,244.8l3.3,0.6c-0.1-0.3,0.4-0.5,0.9-0.7C101.5,244.6,99.3,244.2,99.3,244.8z"/>
									<path class="st0" d="M103.5,244.7c1.1,0,2.1,0,2.7-0.3C105.6,244.3,104.4,244.4,103.5,244.7z"/>
									<polygon class="st0" points="111.2,246.9 110.2,246.4 107.9,246.3 									"/>
									<path class="st0" d="M63.7,244.4L60,245c-0.4,0.7,0.6,1.1,2,0.8C62.9,245.3,64.2,245.1,63.7,244.4z"/>
									<path class="st0" d="M74.6,249.9c-1-0.4-1-0.9-1.6-1.5l-0.1,2.5L74.6,249.9z"/>
									<path class="st0" d="M64,250.5c-0.4,0.7-5.3,2-0.7,1.8C63.8,251.6,67.4,251,64,250.5z"/>
									<path class="st0" d="M14.3,250.7l-0.1-0.9l-4.2-3.2c0,0,1.1,1.1,2.1,2.1C13.2,249.7,14.3,250.7,14.3,250.7z"/>
									<path class="st0" d="M29.3,295.2c0-4.2-2.7-0.4-2.3-4.3c-0.5-0.4-0.7,0.4-0.7,1.2c-0.1,0.8-0.1,1.6-0.6,1.2
										C27.3,295.5,27,296.9,29.3,295.2z"/>
									<path class="st0" d="M25.7,293.3c-0.2-0.4-0.5-0.7-0.9-1.1C25.2,292.8,25.5,293.1,25.7,293.3z"/>
									<polygon class="st0" points="256.1,253.9 256.9,251.1 255.5,252.9 									"/>
									<path class="st0" d="M253,248.6l2.6-0.6l-2.4-1.7C253.4,246.9,253.6,248.1,253,248.6z"/>
									<path class="st0" d="M117.7,423.7l-0.5,0.4c-0.1,0.8,0.4,1.2,1.3,2L117.7,423.7z"/>
									<polygon class="st0" points="146.8,443.8 146.3,443.4 146.2,446.1 									"/>
									<path class="st0" d="M175.2,452.5c-1.1-0.5-2.6-0.4-3.7-0.9C174.1,452,174.5,455.4,175.2,452.5z"/>
								</g>
							</g>
						</g>
					</g>
				</g>
			</g>
		</g>
		<g>
			<g>
				<g>
					<g>
						<g>
							<g>
								<g>
									<path class="st0" d="M236.5,247.2c0.1-1.2-1.5-0.8-1.8-1C235.1,248.3,237,247.2,236.5,247.2z"/>
									<polygon class="st0" points="240.3,267.5 239.6,267.2 241.3,270.2 									"/>
									<path class="st0" d="M240.3,286.5c2.9-1.8-0.5-6.9,0.6-10.3l0.6-0.6l-2.3-1.5C239.6,278.3,241.1,283.6,240.3,286.5z"/>
									<path class="st0" d="M234.1,296.6c1.1-0.6,1,2.2,0.4-2.4c-0.1,0.2-0.2,0.3-0.3,0.4C234.2,295.1,234.2,295.7,234.1,296.6z"
										/>
									<path class="st0" d="M234.2,294.7C234.1,292.7,233.3,296,234.2,294.7L234.2,294.7z"/>
									<path class="st0" d="M234.8,303.9l-1-2.6c-0.7,0.5-0.8,2.9-1.3,2C233.1,306,233.8,305.5,234.8,303.9z"/>
									<path class="st0" d="M236.9,306.4l-0.4-1.4C236.2,305.3,236.1,305.7,236.9,306.4z"/>
									<path class="st0" d="M235.6,302.2l0.9,2.9c0.5-0.4,1.4-0.4-0.3-1.3C237,304,236.2,303.4,235.6,302.2z"/>
									<path class="st0" d="M236,300.5c0.6-1.5,1-3.4,2-0.7C237.6,294.7,235.6,295.5,236,300.5z"/>
									<path class="st0" d="M243.3,287.5l0.8-2l-1-1.7C243.6,284.6,242.4,287.6,243.3,287.5z"/>
									<path class="st0" d="M233.4,320.3c0.6,0.2,1.6-0.9,2.4-1.1l-0.7-1.9C234.6,318.3,234.2,320.2,233.4,320.3z"/>
									<path class="st0" d="M235.7,319.2l1,2.9C236.9,319.6,236.4,319.1,235.7,319.2z"/>
									<polygon class="st0" points="240.1,306.9 237.9,302.1 240.1,307.8 									"/>
									<polygon class="st0" points="233.3,331.4 231.9,329.8 234,332.7 									"/>
									<path class="st0" d="M233.5,338.8c-1.2-1.2-2,1.7-2.7,0.4c0.2,2,1.2,3.7,2.1,5.2C232.4,342.8,232.6,341.1,233.5,338.8z"/>
									<path class="st0" d="M234.2,347c-0.3-0.8-0.8-1.7-1.3-2.6C233.2,345.3,233.6,346.2,234.2,347z"/>
									<path class="st0" d="M236.5,327.1c-0.4,0.2-1.3,0.7-1.7,2.3l1.7-1.1C236.5,327.9,236.5,327.5,236.5,327.1z"/>
									<path class="st0" d="M236.5,328.2L236.5,328.2c-0.1,1.3-0.1,2.1-0.1,2.5C236.4,330.4,236.4,329.7,236.5,328.2z"/>
									<path class="st0" d="M236.5,326.8c0,0.1,0,0.2,0,0.3C236.7,327,236.7,326.9,236.5,326.8z"/>
									<path class="st0" d="M238.5,314.5c1,1.7,2,5.3,3.4,1.8C240.8,315.1,240,317.1,238.5,314.5z"/>
									<path class="st0" d="M238.6,325.4l0.4-3.1c-0.5,0.1-1.1,0.6-1.6-0.2L238.6,325.4z"/>
									<polygon class="st0" points="239.2,326.9 238.6,325.4 238.5,326.5 									"/>
									<path class="st0" d="M235.9,341.7c0.7,1.3,0.8,2.8,0.9,4.4c0.3-1.8,0.5-3.6,0.5-5.3C236.8,340.6,235.8,339.8,235.9,341.7z"
										/>
									<path class="st0" d="M236.3,335.2c0,0.1,0.1,0.2,0.1,0.3C236.6,335.3,236.6,335.1,236.3,335.2z"/>
									<path class="st0" d="M236.8,362.4c0.1-0.1,0.2-0.2,0.3-0.3c-0.1,0-0.2,0-0.3-0.1L236.8,362.4z"/>
									<path class="st0" d="M237.6,340.5c0.3-1.3-0.1-2.1-0.6-2.9c0.2,1,0.3,2,0.3,3.2C237.5,341,237.7,341,237.6,340.5z"/>
									<path class="st0" d="M235,351.6c0.4-0.7,0.7-1.5,0.9-2.3C235.4,349.9,234.6,351.3,235,351.6z"/>
									<path class="st0" d="M235.9,335.9c0-0.1-0.1-0.1-0.1-0.2C235.5,336.1,235.7,336.1,235.9,335.9z"/>
									<path class="st0" d="M235.9,335.9c0.2,0.7,0.7,1.2,1,1.8c-0.1-0.8-0.3-1.6-0.6-2.2C236.3,335.6,236.1,335.8,235.9,335.9z"
										/>
									<path class="st0" d="M247.7,367.3c-1.6-0.2-3-3.7-1.3-6.7c-1.2-3-6.4-1-9.3,1.6c0.7,0.1,1.3,0.1,2.3,3.1
										c0.9-1.1,2-6.8,3.5-4.2c0.8,4-0.6,3.3-1.4,5.3c2-1.7,2.9,5.1,5.8,4.3l-1-3.5C246.6,367,247.3,368.3,247.7,367.3z"/>
									<path class="st0" d="M237.2,356.3l-0.2-1.3c-0.3,1.4-0.9,2.5-2.1,4.3c0.8,2.1,1.4,2.5,1.9,2.7l0.2-6.2L237.2,356.3z"/>
									<path class="st0" d="M237,349.4c1.7,1,2.5,4,4.3,2.2c-0.1-3.7-1.4-2.6-2.2-4.8c0.4,6-1-1.7-1.9,2.6
										c-0.3-1.2-0.4-2.2-0.5-3.2c-0.2,1.1-0.5,2.1-0.8,3.1c0-0.1,0.1-0.1,0.1-0.1l0,0c0,0,0,0,0,0c0.2-0.3,0.3-0.3,0.2-0.1
										c0,0,0,0.1,0,0.1C236.6,349.2,236.8,349.3,237,349.4c-0.4,1.7-0.5,0.3-0.7-0.3c-0.1,0-0.2-0.1-0.3-0.1c0,0,0,0,0,0l0.9,6
										C237.3,353.8,237.2,352.2,237,349.4z"/>
									<path class="st0" d="M245.7,319.5c-0.2,0.2-0.3,0.2-0.4,0.2C245.5,320.1,245.6,320.2,245.7,319.5z"/>
									<path class="st0" d="M244.6,322c-0.2-0.4-0.9-0.8-0.8-2.2c0.5-1.2,0.8,0,1.4-0.1c-0.5-0.8-1.2-3-2.1-0.3l0.2,0.4
										c-0.6,2.4-2.7,5.5-3,5.1C242,324.2,243.1,323.6,244.6,322z"/>
									<path class="st0" d="M241.3,335.9l0.8,5l1.5-2.5l-0.9,0.1C243.1,335.6,242,336.2,241.3,335.9z"/>
									<polygon class="st0" points="235.9,363 234.1,362.3 236.7,365.2 									"/>
									<polygon class="st0" points="236.1,369.4 234.5,369.2 235.5,370.9 									"/>
									<path class="st0" d="M444.5,349.9l0.2-1.5C444.6,349.1,444.5,349.5,444.5,349.9z"/>
									<path class="st0" d="M439.5,358.7l0.5,0.6C439.9,358.6,439.7,358.3,439.5,358.7z"/>
									<path class="st0" d="M296.4,484.2c2.5,1,5.4,2.6,4.8,0.9l-1.1-1.5C298.6,484.3,297.4,484.4,296.4,484.2z"/>
									<path class="st0" d="M391.3,428.3c-0.3,0-0.5,0-0.8,0c0,0.8-0.1,1.5-0.1,2.2C390.7,429.8,391,429,391.3,428.3z"/>
									<path class="st0" d="M388,421.8c0,0,0.7-0.2,1.4-0.4c0.4-0.1,0.7-0.2,1-0.3c0.3-0.1,0.4-0.1,0.4-0.1
										C390.1,421,389.2,421.3,388,421.8z"/>
									<path class="st0" d="M462,297.8l-1.4-2C460.1,298.2,461.2,297.4,462,297.8z"/>
									<path class="st0" d="M236.8,435.5c-0.7,1.8-1,3.3-1,4.6C236.7,437.9,238.2,436.1,236.8,435.5z"/>
									<path class="st0" d="M458.8,362.2c0.2-0.9,0-1.5-0.3-1.6C458.4,361.6,458.3,362.2,458.8,362.2z"/>
									<path class="st0" d="M235.7,445.4c0.2-0.3,0.3-0.6,0.4-1c-0.3-1.3-0.5-2.7-0.4-4.3C235,441.7,234.5,443.6,235.7,445.4z"/>
									<path class="st0" d="M324.9,256.2c-0.2-0.1-0.3-0.1-0.5-0.2C324.4,256.2,324.6,256.2,324.9,256.2z"/>
									<path class="st0" d="M264,238.7c0.6-0.1,1.6-0.1,2.5-0.1C266,238.4,265.3,238.4,264,238.7z"/>
									<path class="st0" d="M235.4,395.4C235.3,394,235.2,395.2,235.4,395.4L235.4,395.4z"/>
									<path class="st0" d="M242.2,388.7c0.2,0.3,0.4,0.5,0.8,0.5C242.7,389.2,242.4,389,242.2,388.7z"/>
									<path class="st0" d="M246.5,459c0,0,0,0.1,0,0.1C246.9,458.7,246.8,458.8,246.5,459z"/>
									<path class="st0" d="M236.2,393.3c-0.2,0.5-0.4,1.1-0.5,1.7C235.8,394.8,235.9,394.3,236.2,393.3z"/>
									<path class="st0" d="M235.3,393.6c0.1-0.5,0.1-0.8,0.2-1.2C235.2,392.2,235,392.4,235.3,393.6z"/>
									<path class="st0" d="M235.5,397.3c0-0.8,0.1-1.5,0.2-2.2c-0.1,0.3-0.2,0.4-0.3,0.3C235.4,395.8,235.4,396.4,235.5,397.3z"
										/>
									<path class="st0" d="M437,251.5c-0.1-0.1-0.2-0.1-0.3-0.2C435.3,252.1,435.9,252,437,251.5z"/>
									<path class="st0" d="M325.6,457c-0.1,0-0.1,0.1-0.1,0.1c0.1,0,0.1,0,0.2,0L325.6,457z"/>
									<path class="st0" d="M329.6,454c-1.1,2.7-2.3,2.9-3.8,3.1l3.3,4.1c0,0,0.2-1.8,0.3-3.6C329.4,455.8,329.6,454,329.6,454z"
										/>
									<path class="st0" d="M454.1,327.6l-2.7,2.5c-0.9-4.6,0.9-6.9-2.2-4.9c2.4,1.2,1.4,4.2,0.4,7.2c-1.2,2.9-2.4,5.9,0,7.2
										l-1.9,1.5c0.3-0.5,0.1-0.8,0.4-1.3c-4.1,2.7,2.2,4.5-1,9.1c-1.2,1.5-2.5,2.3-2.5,0.9c0,0-0.2,1.1-0.4,2.2
										c-0.2,1.1-0.4,2.2-0.4,2.2c-0.7,1-1.4,0.3-0.7-0.7l-2.9,5.8l-0.1-0.1c0.3,1.2,0.4,3.7,0.3,4.9c-1.6,1,0-1-0.9-1
										c0,0,0,0.2-0.1,0.6c-0.1,0.4-0.2,0.8-0.3,1.3c-0.2,0.9-0.4,1.9-0.4,1.9c-2,0.5-1.5-2.7,0-4.8c-3.2,0-3.3,0.8-3.4,2.2
										c-0.1,1.4-0.3,3.3-3.6,5.5l1.2-3.2c-1.9,0.1-2.9,0.8-4,1.8c-1,1-2.2,2.1-4,3.1c0.7-0.1,2.7-0.9,4.5-1.3
										c1.8-0.4,3.2-0.3,2.7,1.7c-1,0.7-2,1.7-2.3,4.1c-1.6-1.1-2.4,0.8-3.8,3l-2-1.7c-0.5,1.3-0.5,2.1-0.3,2.9
										c0.1,0.7,0.4,1.4,0.4,2.4c-2.1,2.3-4.1,1.6-5.8,1.1c-3.3,3.6,4.6-0.7,1.4,4.2c-3.4,2.5-4.5,5.3-6.6,10.1
										c-2.7,1.5-0.8-1.4-2.1-1.2l-0.3,3.2c-0.5,0.4-0.8-0.2-0.9-0.4c-0.9,2.1,1.7,1.9-0.1,4.9c0.7,1.3-1.3,1.9-3.5,2.7
										c-2.3,0.8-4.8,1.9-5.2,4.5c-1.2,0.2-0.7-1.5-1.6-2c-0.7,1.4-1.2,2.4-1.6,3.1c-0.4,0.7-0.7,1.3-1,1.8
										c-0.5,1.1-0.9,2.1-1.8,4.8l-4.2,1.4c1.7-0.2,2.3,0.7,2.2,2.2c-0.1,1.5-0.9,3.4-1.7,5.2c1.4,0.1,2.7,0.1,3.4,0l-3.5,4.5
										c-0.8,0.1-0.9-1-0.8-2.4c-0.2,0.4-0.3,0.8-0.4,1.1c-2.1,0.5-2.2-1.3-2-3.3c0.8,0,1.7,0,2.5,0c0.1-2.1,0-4.2-1.2-5.2
										c-0.1,0.4-0.5,1.1-1,1.6c0-0.5-0.1-1-0.3-1.1c-0.3-0.1-0.4,0.7-0.7,1.7l-2.7-1.5l0.5,1.1c0,0-1.6,0.7-3.3,1.4
										c-0.8,0.4-1.7,0.7-2.3,0.9c-0.6,0.2-1,0.4-1,0.4c-1.2,2.6-2.1,5.4-3.4,8.3c-1.4,2.8-3.3,5.6-6.4,8.3
										c0.6-2.9-1.4-3.1-2.7-5.3c1.6,0.5,2.8-0.5,4-2c1.2-1.4,2.5-3.1,4.3-4.1c-1.9,1-2.2-0.2-2-0.9c0,0-0.3,0.4-0.7,0.9
										c-0.5,0.6-1.1,1.3-1.7,2c-1.2,1.5-2.4,3-2.4,3c-0.9-1.8-2.1-0.4-4.2-0.1c3.4,2.7-3.3,5-5.3,7.6c-0.8-1.1-0.9-2.6,2.4-4.2
										c-2.5-0.3-3,1.4-3.5,3.1c-0.5,1.7-1,3.5-3.4,3.3c0.8-0.4,1.3-0.5,1.3-1.2c-1.3,2-6.3,3.5-5.8,1.9l0.8-0.4
										c-1.4,0.6-3.1,1.4-4.8,2.3c-1.8,0.9-3.6,1.8-5.3,2.8c-1.7,1-3.1,2.1-4.2,3.1c-1,1-1.7,1.9-1.5,2.8
										c-0.2-0.4-0.8-4.1-0.8-4.8c0,0-1.3,3.6-2.8,7.2c-0.7,1.8-1.5,3.7-2.1,5c-0.3,0.7-0.5,1.3-0.7,1.7c-0.2,0.4-0.3,0.6-0.3,0.6
										c0-1.5-1.5-3.6-2.5-5.7c-0.9-2.1-1.3-4.2,0.6-5.9c-0.7,0.1-1.5,0.2-2.5,0.4c-0.9,0.3-2,0.8-3.2,1.7c1,0.1,3.7,3.2,2.5,3.9
										c-4.5-1.9-3-0.8-8-2c0.8,0.1,1.1,1.3,1,2.6c-0.1,1.3-0.7,2.7-1.9,2.9c0.1-0.8-1.5-4.3-0.8-5c0,0-1,1.5-2.1,2.9
										c-1.1,1.5-2.1,2.9-2.1,2.9c1.2-1.2-0.8-3.7-2.3-4.6c0.8,0.7-4.7,1.3-6,2l2.6,0.5c-3.2,0.4-4.3,2.3-5.5,4.2
										c-0.6,1-1.2,2-2,2.8c-0.9,0.8-1.9,1.5-3.6,1.7c0.6-1.1,0.7-5.9-2.5-5.9c-0.5,1.3-1.6,4.3-3.3,7.3c-0.9,1.5-1.9,3.1-3,4.4
										c-1.2,1.3-2.5,2.3-3.9,3l-1.3-1.2l-4.3,2.1c1.2-1.9,3.5-4.9,5.9-7.8c2.4-2.9,4.9-6,6.6-7.7c-2.5-0.6-0.9-1.4-4.4-0.7
										c-1.4-1,1.6-2.2,2.6-2.4c0,0-2,0.2-4.1,0.3c-2,0.1-4.1,0.1-4.1,0.1c0.7,2.6-5.9,3.5-5.3,5.7l8.6-3.9
										c0.4,1.3-0.6,3.4-2.5,5.1c-1.9,1.7-4.7,3.3-7.7,3.3c-1.6-1,0.7-4.9,0.4-5.7c-0.7,1-5.4,2.2-6,1.6l2.4-1.6
										c-0.8-0.2-1.6,0-2.3,0.3c-0.3,0.1-0.7,0.3-1,0.5c-0.2,0.2-0.3,0.4-0.5,0.6c-0.4,0.4-0.8,0.7-1.3,0.8
										c-0.5,0.1-1-0.1-1.3-0.7c-0.3-0.1-0.5-1-0.6-1.6c0-0.7,0-1.1-0.6-0.3c-0.5,1.6-1.6,4.8-2.9,7.9c-1.2,3.1-2.8,6.1-4.5,7.3
										c-0.3-0.1-2.4-0.8-4.1-1.6c-0.9-0.4-1.7-0.9-2.2-1.4l-0.2-0.2c0-0.1,0.1-0.3,0.1-0.5c0.1-0.3,0.2-0.7,0.3-0.9
										c0.2-0.6,0.4-1.1,0.6-1.5c1.2-2.3,2.6-2.6,4-3.2c0.3-0.2,0.7-0.3,1-0.5c0.4-0.2,0.6-0.4,1.1-0.8c0.4-0.3,0.7-0.7,1-1
										c0.1-0.2,0.2-0.3,0.4-0.4c0.1-0.1,0.2-0.3,0.3-0.5c-0.7,0.7-1.6,0.8-1.9,0.7c0.3-0.8,0.9-1.2,1.3-1.6
										c0.4-0.4,0.8-0.9,0.6-1.6c-1.4,0.9-1.3-0.3-1.2-0.9c0-0.3,0.1-0.5,0-0.4c-0.1,0.2-0.4,0.6-1,1.9c-0.4-0.9-0.2-1.6,0-2.3
										c0.2-0.7,0.5-1.5,0.5-2.7c-0.9,0.6-2.4,0.4-3.8-0.8c-0.7-0.6-1.3-1.4-1.9-2.2c-0.5-0.8-0.9-1.7-1.1-2.5
										c0.7,0.2,1.6-0.5,2-0.9c0.2-6.4,1.5-9.9,1.5-15.8c0.7-0.6,1.5-3.4,2.6-2.2c-0.5-0.9-1.4-1.6-1.5-3.5
										c2.4-3.6,0.4,4.1,3.2,1.4c-1.6-0.2-2.2-4.8-3.2-7.4c-2.4,0.8-0.5,6.1,0.5,8.7c-3.4,0-6.9-4.6-8.5-10.8
										c-0.8-5,2.2-2.2,1.7-3c0.6-9.3-5.9-8-3.5-15.7c2.2-3.1,4.3-0.1,5.8-0.8c0.8,4-1.4,6.2-1.3,9l1-3.4c0.7,1.3,1.3,4,0.6,5.5
										c1.9-2.6,0.4-15.8,2.2-23c-0.7-1.3-1.5-3.5-2.3-2.4l0.3,2.3c-1.7,2.1-2.4-4.3-3.2-1.4c-1.2-3.1-3.1-6.5-2.2-10.8l2.5-0.8
										c-0.7,0.1-1.5,2.8-0.7,4c-1.1-1.8,3.3-6.6,0.1-8.6l-1.7,3c-1.2-3.1-3.8-6.9-3.1-10.7c-2.4,1.7,0.3,0.9-2.6,3.6
										c3.5-2.4-0.1,9.8,3.6,6c-3.3,2.8-1.4,4.8-4.2,8.4c0.8-0.1,1.5-1.3,1.1,1.9c0.2,0.1,0.5,0.5,0.7,0.7c0,0.1,0,0.1-0.1,0.2
										c0-0.1,0.1-0.1,0.1-0.2c0.1,0.1,0.1,0.1,0-0.1c0.4-0.8,0.8-1.4,1.2-1.6c1.9,1.6,1.8,6.7,2.8,8.4c-0.4,1.9-0.9-0.8-1.8,0.2
										l1.4,2.6c-1.8,0.3-3,5-4,0.6l-0.1,4c-1,2.4-1.4,5.6-0.7,7.6c-0.4,1.9,2,4.8,0.6,3.1l1.1,6.3l-0.4,0.1
										c-0.2,6.2,3,12.8-0.3,20c0.5,2.1,1,4.3,0.5,7.8l-1.6,0.7c0.5,2.7-1.6,8.1,0.1,9.2c-0.3,0.2-0.5,0.4-0.7,0.6
										c-0.1,0.1-0.2,0.2-0.3,0.4l-0.1,0.2l-0.1,0.1l-0.1,0.2c-0.3,1-0.5,2.2-0.7,3.6c-0.3,2.7-0.3,5.9-0.1,9
										c0.1,3.2,0.3,6.4,0.5,9.3c0.1,1.5,0.1,2.9,0.2,4.2c0,0.7,0,1.3,0,1.9c0,0.3-0.1,0.7,0,0.9c0.3,0,0.5,0,0.8,0l2.2-2.1
										c5.4,0,11.2-0.7,18-1.7c0,0,0-0.4,0.1-0.9c0-0.4,0.1-0.9,0.1-0.9c1.4-0.4,2.9-0.6,4.4-0.6c0.8,0,1.6,0,2.5,0
										c0.4,0,0.9,0,1.3,0.1l0.3,0l0.2,0l0.5,0.1c1.3,0.1,2.7,0.3,4.1,0.4c1.4,0.1,2.9,0.2,4.3-0.1c-0.3,0.7-1.8,0.7-2.8,0.4
										c1.8,0.9,3.6,0.9,5.4,0.7c1.8-0.3,3.5-0.9,5.2-1.5c0.8-0.3,1.7-0.6,2.5-1c0.8-0.3,1.6-0.6,2.5-0.9c1.6-0.5,3.3-0.6,4.9-0.2
										c1.4-0.9,2.5-0.9,3.7-0.6c-0.1,0-0.3,0.1-0.4,0.2c0.2,0,0.4,0,0.6-0.1c0.7,0.2,1.5,0.4,2.3,0.5c-0.7-0.3-1.4-0.5-2-0.6
										c1.2-0.2,2.9-0.9,4.5-1.7l1.2,1.7c0.1-0.1,0.2-0.1,0.4-0.1c1.9,0.3,1.2-1.2-0.1-2.4c0.8-0.5,1.5-1.1,2-1.7
										c1,1.4,2.1,0.8,3.3,0.3c1.1-0.5,2.3-1.1,3.7,0.3c0.7-1.9,8.3-3.6,8.1-7.1c0.2,0.4,0.7,0.4-0.1,0.8c2-0.3,3.9-0.5,5.3-2
										l1.6,2.1l2.9-4.5c2.9,0.5,4.2,0.9,2.5,3.6c4.8-5,4.4-2.9,8.2-7.5l0.4,1.6c0.9-0.4,1.8-1.4,2.7-2.2c0.9-0.8,1.7-1.4,2.5-1.1
										c1.3,0.3,3.1-0.1,5.3-0.9c0.6-0.2,1.1-0.4,1.7-0.6c0.6-0.3,1.2-0.5,1.8-0.8c1.2-0.6,2.6-1.2,3.9-1.9
										c1.4-0.7,2.8-1.4,4.2-2.1c1.4-0.7,2.8-1.5,4.2-2.2c1.4-0.7,2.8-1.4,4.3-1.9c1.4-0.6,2.8-1.1,4.1-1.5
										c-4.2-2.8,5.4-1,3.8-4.3c1.1,0.6,2.8,0.3,1.8,2c1-1,2-1.7,3-2.2c1-0.6,1.9-1,2.7-1.5c1.6-0.9,3-2,3.7-4.3
										c1.2,0.5,0,2,0.8,2.2c0.2-0.5,0.9-1.8,1.8-1.6c0.9,0.2-0.1,1.2-0.6,2.1c1.1-0.9,1.9-1.7,2.4-2.6c0.4-0.9,0.6-1.7,0.6-2.5
										c-0.1-1.6-0.9-3-1.7-4.4c3.2-0.6,4.2-1.6,4.5-4.5c1.4,0.2,3.4,0,0.9,2.5c0.4-0.3,1.3-0.8,2.3-1.5c1-0.7,2.2-1.6,3.2-2.5
										c2.2-1.8,3.9-3.7,3.1-4.7c0.4,0,1-0.4,1.5-0.9c0.4-0.5,0.8-1.1,0.9-1.4c3.3-2.9,3.8-3,6.7-6.2l-1.2,0.5
										c-0.9-3.3,2.1-3,4.2-5.8l0.2,0.3c3.6-2.1,4-2.9,4.4-3.7c0.4-0.8,0.8-1.5,4.4-3.7l-1.7-0.9c-1.3-1.6,0.3-2.5,2.4-3.6
										c2.2-1,4.8-2.4,5.6-4.7l-1.9,0.6c0.2-1.4,2.4-1.9,4.8-2.3c2.4-0.4,5-0.6,6-1.5c0.6-0.2,0,1.1-0.3,1.8
										c5.9-4-1.5-2.2,0.9-6.6c1.6,0,2.1,3,4.3,0.4c0.5-0.2,0.8-0.9,1.2-2c0.2-0.5,0.4-1.1,0.5-1.8c0.2-0.7,0.3-1.4,0.5-2.1
										c0.8-2.9,1.8-5.9,4.2-7.2c-1.4,0.3-2.9,0.6-2.3-1.8c0.8-1.6,2.8-3.2,4.5-4.9c1.7-1.7,3.1-3.6,2.4-5.8
										c0.5-0.3,0.8-0.3,1-0.2c0.5-2.8,2.8-8.5,1.9-10.7c3.5,0.4,4.5-3.9,5.3-7.7c0.2-1,0.4-1.9,0.6-2.8c0.2-0.9,0.4-1.7,0.6-2.3
										c0.5-1.2,1.3-1.9,2.8-1.3c0,0,0.7-2,1.4-3.9c0.3-1,0.7-2,0.9-2.7c0.2-0.7,0.4-1.2,0.4-1.2l0.5,0.4c2.1-4.9,1.3-7.2,0.5-9.4
										c0.8-1,1,0,1.3,0.2c0.9-1.7,1.5-3.1,2-4.3c0.4-1.2,0.7-2.2,0.8-3.2c0.1-1,0.1-2,0-3.2c-0.1-1.2-0.3-2.5-0.7-4.3l2.1-0.2
										c-0.4-1,1-3.5,2.4-6.8c0.4-0.8,0.7-1.7,1-2.6c0.3-0.9,0.5-1.9,0.7-2.9c0.4-1.9,0.6-4,0.4-5.9c0.2,0.1,0.6,0.3,0.7,1
										c-0.1-1.1,0-2.2,0.1-3.4c0.2-1.1,0.4-2.3,0.7-3.5c0.6-2.3,1.4-4.6,2.1-6.8c0.7-2.2,1-4.2,0.9-6c-0.2-1.8-0.9-3.1-2.7-4.1
										c0,0-0.3-1.9-0.7-3.8c-0.2-0.9-0.3-1.8-0.5-2.4c-0.1-0.6-0.3-1.1-0.3-1.1c-0.5,4.7-1.3,4.3-2.1,3.5c-0.8-0.8-1.6-2-2.4-0.3
										c-0.1-1.4,0.4-3.3,1.1-4.7c0.7-1.4,1.4-2.1,1.6-0.2l-0.4,0.8c0.9,0,1.5-0.6,1.9-1.8c0.4-1.1,0.5-2.7,0.7-4.3
										c0.3-3.2,0.4-6.5,1.7-7.6l0-0.9l0-0.5c-0.1,0-0.3,0-0.4,0l-1.8,0c-1.2,0-2.4,0-3.6-0.1c-2.4,0-4.8-0.1-7.2-0.2
										c-2.4-0.1-4.9-0.2-7.3-0.3l-1.9-0.1l-1.4-0.1c-0.9-0.1-1.7-0.1-2.5-0.2c-6.8-0.5-13.4-1.1-20-1.2l1.5,2.9l-4.6-0.2
										c-1.2-0.7-1.6-2.3,1.6-2.2c-1.7-1.7-5.5,1.4-5.5,2c-6.4-1.2,2.5-3.4,0.5-3.5l-2.6,0.2l0.6,0.3c-2.1,1.2-2.3,2.5-6.2,2.3
										c-2.5-0.6-1.3-1.8-2.2-1.9c0-0.2-0.3-0.3-1.5-0.1l-5.7-0.2l2.3,2.3c-2.5,1.1-5.4-0.1-2.7,2.5c-3.9-4-21.4-1.4-23.8-2.7
										c-3.6,1.7-7.1,1.7-11.4,1.5c1.1,0.5,1.7,3.1-2,2.8c1.4-5.4-6.9-2.3-9.9-6.2c2.7,2.6-10.7,0.6-6.4,4.3
										c-3.1-0.4-0.2-2-2.6-3.3c-7.5,2.1-16.4-1.3-25.7-0.6c-0.1,0.7,1.4,1.8-0.6,2.8l-4.9-3.5c-1.8,0.3-1.7,4.1-5,1.6
										c0.5,0.6,1.2,1.5-0.1,1.7c-18.1-3.4-36.9,2.8-55.3-3.6c2.5,1.4,0.8,1.5-1.1,1.5c1.2,0.3,0,1.7,0.2,2.7l-7.7-2.6
										c-1.4,2.6-8.2,0.2-9,2.7l2.4-0.5c-3.2,3,4.5,6.6,4.1,10.5c3.6-3.4,9.6,5,15.5,0.2c1.3,0.8-1.1,1.2-0.4,2.1
										c1.5-1.6,3.3-2,6.7-1.2l-0.4,0.4c9.5-0.4,13.5,1.2,24.2,2.3l-0.8-1.9c2.3,0.3,2.8,0.8,3.8,1.3c2.6-2.9-6.4-0.2-4-3.3
										c3,3.9,16.1,0.1,18.2,4.4c3.5,0-1-2.2,2.5-2.2l0.9,1.2l0.9-1.5c2.3,0.3,3.5,1.7,3.6,2.7c-0.6-0.1-1.6,0.3-2.2,0.4
										c3,1.4,8.4-0.5,9.5,0l-3.4-0.7c9.6-1.1,21.3,0.4,30.6-2l-0.7-0.9c7.1-1.7,5.7,1,13.5,0.2l-0.3,0.2c1.6-0.9,3.6-1.3,5.8-1.2
										c-2,1,3.7,2,1.1,3.2c7.7-1.8,3.8-1.4,8.9-4.7l1.2,1.5c1.7-1.3,1.9-2,5.8-2.4c-3.2,1.3,2.5,2.3-1.1,3.9
										c8.2,3.2,12.1-3.3,15.8,1.5c3.7-4.1-7.1-2.3-5-3.2c-1.8-1.3,3.1-3.1,5.6-2.7c2.6,0.1,4.4,5.3,11,5.2
										c-0.6,0-0.7,0.3-1.3,0.3c2.5,1,4.8-1.4,7.8,0.3c1.7-2.5,3.9,0.1,4.4-3l-6,0.7c3.4-0.8,6.6-4.5,12.2-2.7
										c-0.4,0.6-2.1,1.5-3.3,1.9c1.6,0.9,3.2-0.6,4.9,0.3c-0.5,3.2-7.3,0.7-11,3.1c1.8,1.3,6.9-2.3,5.1,1.1
										c2.6-4.4,6.5,0.5,10.9-2.8l-0.3,1.9c0.7-0.3,2.2-1.2,3.4-1.1l-2.3,2.5c3.6-2.1,6.9,1.8,10.4,0.7c-7.2,0.1-1.6-2.3-4.7-3.7
										c4.4-1.3,5.7,0,7.1,1.4c0.7,0.7,1.4,1.5,2.6,2c0.1,0,0.1,0.1,0.2,0.1c0.1,0,0.1,0.1,0.1,0.1c0,0.1,0.1,0.1,0.1,0.2
										c0.1,0.1,0.2,0.2,0.3,0.2c0.2,0.1,0.5,0.1,0.8,0c-0.2,0.1-0.5-0.1-0.6-0.6c-0.2-0.4-0.3-1,0.1-1.4c0.7,0.4,1.4,1.1,1.2,2.1
										c0.9-0.2,1.3-0.7,1.4-1.3c0.2-0.6,0-1.3,1-1.8c-0.2,1.2,0.2,0.9,1.1,0.3c0.9-0.6,2.2-1.6,3.5-2l-1.9,1.9c0.2,0,0,0.4,0,0.5
										c0,0.2,0,0.3,0,0.5c0,0.2,0.1,0.3,0.3,0.4c0.3,0.1,0.8-0.2,1.3-0.4c0.5-0.2,1-0.5,1.3-0.3c0.3,0.2,0.3,0.8-0.1,2
										c0,0-0.7-0.1-1.4-0.1c-0.7,0-1.4,0.1-1.4,0.1s0.2,0.3,0.3,0.6c0.2,0.3,0.3,0.7,0.3,0.7s-0.6,0.1-1.1,0.3
										c-0.6,0.2-1.1,0.4-1.1,0.4c0.8,0.3,1.1,0.8,1.1,1.3c0,0.3-0.1,0.5-0.2,0.8c-0.1,0.1-0.1,0.3-0.2,0.5
										c-0.1,0.2-0.2,0.2-0.3,0.8c1.4-0.7,3.5,0.7,3.3,4c-1.3,2.1-1.7-1.4-1.8,3.2c-1.1-1.2-2.5-2.4-0.6-4.2
										c-0.6-0.3-1.1-1.1-1.7-1.4c-0.7,1.1-0.9,2.6-0.9,3.9c0,1.4,0,2.7,0,3.5c0.1-0.6,0.4-1.3,0.7-1.7l1.8,6.9
										c-0.9,0.9-1.3,0-1.8-0.8c0,1.3,0.8,2.4,0.7,4.4c-1.5-0.7-3.1-0.9-3.5-3.7c0,0,0.2,1.6,0.5,3.2c0.2,1.6,0.3,3.2,0.3,3.2
										c-0.7,0.3-2.4,2.8-2.8,1.9c-0.8,1.6-0.4,3.8-0.1,6.1c0.2,2.3,0.3,4.8-0.8,6.9c0.2,0.3,0.4,0.8,0.4,1.8
										c-0.6,2.1-1.8,3.9-2.6,5.8c-0.8,2-1.4,4.1-1,6.9l-3.6,1.9c-0.7,4,4.6-2.6,3.5,4c-0.7,4.8-2.8,0.9-4.1,2.2
										c0.1,0.7,0.4,1.5,0.5,2.4c0.1,0.9,0.2,1.8,0.1,2.8c-0.1,1.9-0.8,4-2.6,5.6C453,329.8,453.8,328.9,454.1,327.6z
										 M432.2,371.9c0.2-1,0.2-3.3,1.5-3.3C435,370.8,433.7,370.9,432.2,371.9z M383.1,430c0.2-0.9,1.3-1.4,2.7-1.6
										C385.2,429.1,384.4,429.7,383.1,430z M236.9,410.4c0,0,0.1,0.1,0.1,0.1C236.3,412.7,236.6,411.9,236.9,410.4z M237.8,405.8
										c-0.3-0.5-0.5-0.4-0.8-0.2c0.5,0.3,0.5,1.4,0.4,2.5C237.9,407.7,238.2,407.1,237.8,405.8z M422.4,238.5l0.9,0.5
										C421.2,239.6,421.8,239.1,422.4,238.5z"/>
									<path class="st0" d="M388.3,422.5c0.4,0.1,0.7,0.3,1,0.6C389.4,422.6,389.2,422.3,388.3,422.5z"/>
									<path class="st0" d="M462.3,298.1c0,0,0-0.1,0.1-0.1c-0.1-0.1-0.2-0.2-0.3-0.2L462.3,298.1z"/>
									<path class="st0" d="M254.1,470.3c-0.3,0.7-0.6,1.4-1,1.9C253.6,471.8,254,471.1,254.1,470.3z"/>
									<path class="st0" d="M234.5,381.2l0.5,3c-0.1-1.4,0.3-1.9,0.6-2.7C235.2,381.6,234.5,382.2,234.5,381.2z"/>
									<path class="st0" d="M246.4,355.5c-0.2-0.4,0-0.9-0.3-1.3l-0.9,0.1C245.3,356.1,246.1,357.4,246.4,355.5z"/>
									<path class="st0" d="M240.9,378.5c1.6-0.2,1.1-2.1,0.8-4.2c0,0.1,0,0.2,0,0.4C239.4,374.1,240.2,376.3,240.9,378.5z"/>
									<path class="st0" d="M241.6,373.8c-0.1-0.6-0.1-1.3,0-1.9C240.7,371.7,241.4,372.7,241.6,373.8z"/>
									<path class="st0" d="M236.7,399.9c0.4-1-2.1-0.6-1.4-1.2C233.2,397.6,237.8,405.3,236.7,399.9z"/>
									<polygon class="st0" points="246.3,376.8 244.3,377.5 245.9,378.7 									"/>
									<path class="st0" d="M244.8,393.2l0.6-3.3c-0.3,0-0.5-0.4-0.7-0.9C244.6,391,244.2,393.3,244.8,393.2z"/>
									<path class="st0" d="M244.7,389c0-1.1,0-2.1-0.3-2.7C244.3,386.9,244.4,388.1,244.7,389z"/>
									<polygon class="st0" points="246.9,381.3 246.4,382.3 246.3,384.7 									"/>
									<path class="st0" d="M244.4,428.9l0.6,3.6c0.7,0.4,1.1-0.6,0.8-2C245.3,429.7,245.1,428.3,244.4,428.9z"/>
									<path class="st0" d="M249.9,417.9c-0.4,1-0.9,1-1.5,1.6l2.5,0.1L249.9,417.9z"/>
									<path class="st0" d="M250.5,428.5c0.7,0.4,2,5.3,1.8,0.7C251.6,428.8,251,425.2,250.5,428.5z"/>
									<path class="st0" d="M250.7,478.3l-0.9,0.1l-3.2,4.2c0,0,1.1-1.1,2.1-2.1C249.7,479.3,250.7,478.3,250.7,478.3z"/>
									<path class="st0" d="M295.2,463.2c-4.2,0-0.4,2.7-4.3,2.3c-0.4,0.5,0.4,0.7,1.2,0.7c0.8,0.1,1.6,0.1,1.2,0.6
										C295.5,465.3,296.9,465.5,295.2,463.2z"/>
									<path class="st0" d="M293.3,466.8c-0.4,0.2-0.7,0.5-1.1,0.9C292.8,467.3,293.1,467,293.3,466.8z"/>
									<polygon class="st0" points="253.9,236.5 251.1,235.6 252.9,237 									"/>
									<path class="st0" d="M248.6,239.5l-0.6-2.6l-1.7,2.4C246.9,239.1,248.1,238.9,248.6,239.5z"/>
									<path class="st0" d="M423.7,374.9l0.4,0.5c0.8,0.1,1.2-0.4,2-1.3L423.7,374.9z"/>
									<polygon class="st0" points="443.8,345.7 443.4,346.3 446.1,346.3 									"/>
									<path class="st0" d="M452.5,317.4c-0.5,1.1-0.4,2.6-0.9,3.7C452,318.5,455.4,318,452.5,317.4z"/>
								</g>
							</g>
						</g>
					</g>
				</g>
			</g>
		</g>
		<g>
			<g>
				<g>
					<g>
						<g>
							<g>
								<g>
									<path class="st0" d="M247.2,256c-1.2-0.1-0.8,1.5-1,1.8C248.3,257.5,247.2,255.6,247.2,256z"/>
									<polygon class="st0" points="267.5,252.2 267.2,252.9 270.2,251.2 									"/>
									<path class="st0" d="M286.5,252.2c-1.8-2.9-6.9,0.5-10.3-0.6l-0.6-0.6l-1.5,2.3C278.3,253,283.6,251.4,286.5,252.2z"/>
									<path class="st0" d="M296.6,258.4c-0.6-1.1,2.2-1-2.4-0.4c0.2,0.1,0.3,0.2,0.4,0.3C295.1,258.3,295.7,258.3,296.6,258.4z"
										/>
									<path class="st0" d="M294.7,258.3C292.7,258.4,296,259.3,294.7,258.3L294.7,258.3z"/>
									<path class="st0" d="M303.9,257.7l-2.6,1c0.5,0.7,2.9,0.8,2,1.3C306,259.4,305.5,258.8,303.9,257.7z"/>
									<path class="st0" d="M306.4,255.6l-1.4,0.4C305.3,256.3,305.7,256.4,306.4,255.6z"/>
									<path class="st0" d="M302.2,256.9l2.9-0.9c-0.4-0.5-0.4-1.4-1.3,0.3C304,255.5,303.4,256.3,302.2,256.9z"/>
									<path class="st0" d="M300.5,256.5c-1.5-0.6-3.4-1-0.7-2C294.7,254.9,295.5,256.9,300.5,256.5z"/>
									<path class="st0" d="M287.5,249.3l-2-0.8l-1.7,1C284.6,248.9,287.6,250.2,287.5,249.3z"/>
									<path class="st0" d="M320.3,259.2c0.2-0.6-0.9-1.6-1.1-2.4l-1.9,0.7C318.3,257.9,320.2,258.3,320.3,259.2z"/>
									<path class="st0" d="M319.2,256.8l2.9-1C319.6,255.6,319.1,256.1,319.2,256.8z"/>
									<polygon class="st0" points="306.9,252.4 302.1,254.6 307.8,252.4 									"/>
									<polygon class="st0" points="331.4,259.3 329.8,260.7 332.7,258.5 									"/>
									<path class="st0" d="M338.8,259c-1.2,1.2,1.7,2,0.4,2.7c2-0.2,3.7-1.2,5.3-2.1C342.8,260.1,341.1,260,338.8,259z"/>
									<path class="st0" d="M347,258.3c-0.8,0.3-1.7,0.8-2.6,1.3C345.3,259.3,346.2,258.9,347,258.3z"/>
									<path class="st0" d="M327.1,256c0.2,0.4,0.7,1.3,2.3,1.7l-1.1-1.7C327.9,256.1,327.5,256.1,327.1,256z"/>
									<path class="st0" d="M328.2,256L328.2,256c1.3,0.1,2.1,0.1,2.5,0.2C330.4,256.1,329.7,256.1,328.2,256z"/>
									<path class="st0" d="M326.8,256c0.1,0,0.2,0,0.3,0C327,255.9,326.9,255.8,326.8,256z"/>
									<path class="st0" d="M314.5,254c1.7-1,5.3-2,1.8-3.4C315.1,251.7,317.1,252.6,314.5,254z"/>
									<path class="st0" d="M325.4,253.9l-3.1-0.4c0.1,0.5,0.6,1.1-0.2,1.6L325.4,253.9z"/>
									<polygon class="st0" points="326.9,253.4 325.4,253.9 326.5,254 									"/>
									<path class="st0" d="M341.7,256.7c1.3-0.7,2.8-0.8,4.4-0.9c-1.8-0.3-3.6-0.5-5.3-0.5C340.6,255.8,339.8,256.7,341.7,256.7z
										"/>
									<path class="st0" d="M335.2,256.2c0.1,0,0.2-0.1,0.3-0.1C335.3,256,335.1,255.9,335.2,256.2z"/>
									<path class="st0" d="M362.4,255.8c-0.1-0.1-0.2-0.2-0.3-0.3c0,0.1,0,0.2-0.1,0.3L362.4,255.8z"/>
									<path class="st0" d="M340.5,254.9c-1.3-0.3-2.1,0.1-2.9,0.6c1-0.2,2-0.3,3.2-0.3C341,255,341,254.8,340.5,254.9z"/>
									<path class="st0" d="M351.6,257.5c-0.7-0.4-1.5-0.7-2.3-0.9C349.9,257.1,351.3,257.9,351.6,257.5z"/>
									<path class="st0" d="M335.9,256.6c-0.1,0-0.1,0.1-0.2,0.1C336.1,257,336.1,256.8,335.9,256.6z"/>
									<path class="st0" d="M335.9,256.6c0.7-0.2,1.2-0.7,1.8-1c-0.8,0.1-1.6,0.3-2.2,0.6C335.6,256.2,335.8,256.4,335.9,256.6z"
										/>
									<path class="st0" d="M367.3,244.8c-0.2,1.6-3.7,3-6.7,1.3c-3,1.2-1,6.4,1.6,9.3c0.1-0.7,0.1-1.3,3.1-2.3
										c-1.1-0.9-6.8-2-4.2-3.5c4-0.8,3.3,0.6,5.3,1.4c-1.7-2,5.1-2.9,4.3-5.8l-3.5,1C367,245.9,368.3,245.2,367.3,244.8z"/>
									<path class="st0" d="M356.3,255.3l-1.3,0.2c1.4,0.3,2.5,0.9,4.3,2.1c2.1-0.8,2.5-1.4,2.7-1.9l-6.2-0.2L356.3,255.3z"/>
									<path class="st0" d="M349.4,255.5c1-1.7,4-2.5,2.2-4.3c-3.7,0.1-2.6,1.4-4.8,2.2c6-0.4-1.7,1,2.6,1.9
										c-1.2,0.3-2.2,0.4-3.2,0.5c1.1,0.2,2.1,0.5,3.1,0.8c-0.1,0-0.1-0.1-0.1-0.1l0,0c0,0,0,0,0,0c-0.3-0.2-0.3-0.3-0.1-0.2
										c0,0,0.1,0,0.1,0C349.2,255.9,349.3,255.7,349.4,255.5c1.7,0.4,0.3,0.5-0.3,0.7c0,0.1-0.1,0.2-0.1,0.3c0,0,0,0,0,0l6-0.9
										C353.8,255.3,352.2,255.3,349.4,255.5z"/>
									<path class="st0" d="M319.5,246.9c0.2,0.2,0.2,0.3,0.2,0.4C320.1,247,320.2,246.9,319.5,246.9z"/>
									<path class="st0" d="M322,247.9c-0.4,0.2-0.8,0.9-2.2,0.8c-1.2-0.5,0-0.8-0.1-1.4c-0.8,0.5-3,1.2-0.3,2.1l0.4-0.2
										c2.4,0.6,5.5,2.7,5.1,3C324.2,250.5,323.6,249.4,322,247.9z"/>
									<path class="st0" d="M335.9,251.3l5-0.8l-2.5-1.5l0.1,0.9C335.6,249.5,336.2,250.6,335.9,251.3z"/>
									<polygon class="st0" points="363,256.6 362.3,258.4 365.2,255.9 									"/>
									<polygon class="st0" points="369.4,256.4 369.2,258 370.9,257 									"/>
									<path class="st0" d="M349.9,48l-1.5-0.2C349.1,48,349.5,48,349.9,48z"/>
									<path class="st0" d="M358.7,53l0.6-0.5C358.6,52.6,358.3,52.8,358.7,53z"/>
									<path class="st0" d="M484.2,196.2c1-2.5,2.6-5.4,0.9-4.8l-1.5,1.1C484.3,193.9,484.4,195.1,484.2,196.2z"/>
									<path class="st0" d="M428.3,101.2c0,0.3,0,0.5,0,0.8c0.8,0,1.5,0.1,2.2,0.1C429.8,101.9,429,101.5,428.3,101.2z"/>
									<path class="st0" d="M421.8,104.6c0,0-0.2-0.7-0.4-1.4c-0.1-0.4-0.2-0.7-0.3-1c-0.1-0.3-0.1-0.4-0.1-0.4
										C421,102.4,421.3,103.4,421.8,104.6z"/>
									<path class="st0" d="M297.8,30.5l-2,1.4C298.2,32.4,297.4,31.3,297.8,30.5z"/>
									<path class="st0" d="M435.5,255.8c1.8,0.7,3.3,1,4.6,1C437.9,255.8,436.1,254.3,435.5,255.8z"/>
									<path class="st0" d="M362.2,33.7c-0.9-0.2-1.5,0-1.6,0.3C361.6,34.2,362.2,34.2,362.2,33.7z"/>
									<path class="st0" d="M445.4,256.8c-0.3-0.2-0.6-0.3-1-0.4c-1.3,0.3-2.7,0.5-4.3,0.4C441.7,257.6,443.6,258,445.4,256.8z"/>
									<path class="st0" d="M256.2,167.6c-0.1,0.2-0.1,0.3-0.2,0.5C256.2,168.1,256.2,167.9,256.2,167.6z"/>
									<path class="st0" d="M238.7,228.5c-0.1-0.6-0.1-1.6-0.1-2.5C238.4,226.5,238.4,227.2,238.7,228.5z"/>
									<path class="st0" d="M395.4,257.2C394,257.3,395.2,257.4,395.4,257.2L395.4,257.2z"/>
									<path class="st0" d="M388.7,250.3c0.3-0.2,0.5-0.4,0.5-0.8C389.2,249.9,389,250.1,388.7,250.3z"/>
									<path class="st0" d="M459,246c0,0,0.1,0,0.1,0C458.7,245.7,458.8,245.7,459,246z"/>
									<path class="st0" d="M393.3,256.4c0.5,0.2,1.1,0.4,1.7,0.5C394.8,256.8,394.3,256.6,393.3,256.4z"/>
									<path class="st0" d="M393.6,257.2c-0.5-0.1-0.8-0.1-1.2-0.2C392.2,257.3,392.4,257.5,393.6,257.2z"/>
									<path class="st0" d="M397.3,257.1c-0.8,0-1.5-0.1-2.2-0.2c0.3,0.1,0.4,0.2,0.3,0.3C395.8,257.1,396.4,257.1,397.3,257.1z"
										/>
									<path class="st0" d="M251.5,55.5c-0.1,0.1-0.1,0.2-0.2,0.3C252.1,57.2,252,56.6,251.5,55.5z"/>
									<path class="st0" d="M457,166.9c0,0.1,0.1,0.1,0.1,0.1c0-0.1,0-0.1,0-0.2L457,166.9z"/>
									<path class="st0" d="M454,163c2.7,1.1,2.9,2.3,3.1,3.8l4.1-3.3c0,0-1.8-0.2-3.6-0.3C455.8,163.1,454,163,454,163z"/>
									<path class="st0" d="M327.6,38.4l2.5,2.7c-4.6,0.9-6.9-0.9-4.9,2.2c1.2-2.4,4.2-1.4,7.2-0.4c2.9,1.2,5.9,2.4,7.2,0l1.5,1.9
										c-0.5-0.3-0.8-0.1-1.3-0.4c2.7,4.1,4.5-2.2,9.1,1c1.5,1.2,2.3,2.5,0.9,2.5c0,0,1.1,0.2,2.2,0.4c1.1,0.2,2.2,0.4,2.2,0.4
										c1,0.7,0.3,1.4-0.7,0.7l5.8,2.9l-0.1,0.1c1.2-0.3,3.7-0.4,4.9-0.3c1,1.6-1,0-1,0.9c0,0,0.2,0,0.6,0.1
										c0.4,0.1,0.8,0.2,1.3,0.3c0.9,0.2,1.9,0.4,1.9,0.4c0.5,2-2.7,1.5-4.8,0c0,3.2,0.8,3.3,2.2,3.4c1.4,0.1,3.3,0.3,5.5,3.6
										l-3.2-1.2c0.1,1.9,0.8,2.9,1.8,4c1,1,2.1,2.2,3.1,4c-0.1-0.7-0.9-2.7-1.3-4.5c-0.4-1.8-0.3-3.2,1.7-2.7
										c0.7,1,1.7,2,4.1,2.3c-1.1,1.6,0.8,2.4,3,3.8l-1.7,2c1.3,0.5,2.1,0.5,2.9,0.3c0.7-0.1,1.4-0.4,2.4-0.4
										c2.3,2.1,1.6,4.1,1.1,5.8c3.6,3.3-0.7-4.6,4.2-1.3c2.5,3.4,5.3,4.5,10.1,6.6c1.5,2.7-1.4,0.8-1.2,2.1l3.2,0.3
										c0.4,0.5-0.2,0.8-0.4,0.9c2.1,0.9,1.9-1.7,4.9,0.1c1.3-0.7,1.9,1.3,2.7,3.5c0.8,2.3,1.9,4.8,4.5,5.2c0.2,1.2-1.5,0.7-2,1.6
										c1.4,0.7,2.4,1.2,3.1,1.6c0.7,0.4,1.3,0.7,1.8,1c1.1,0.5,2.1,0.9,4.8,1.8l1.4,4.2c-0.2-1.7,0.7-2.3,2.2-2.2
										c1.5,0.1,3.4,0.9,5.2,1.7c0.1-1.4,0.1-2.7,0-3.4l4.5,3.5c0.1,0.8-1,0.9-2.4,0.8c0.4,0.2,0.8,0.3,1.1,0.4
										c0.5,2.1-1.3,2.2-3.3,2c0-0.8,0-1.7,0-2.5c-2.1-0.1-4.2,0-5.2,1.2c0.4,0.1,1.1,0.5,1.6,1c-0.5,0-1,0.1-1.1,0.3
										c-0.1,0.3,0.7,0.4,1.7,0.7l-1.5,2.7l1.1-0.5c0,0,0.7,1.6,1.4,3.3c0.4,0.8,0.7,1.7,0.9,2.3c0.2,0.6,0.4,1,0.4,1
										c2.6,1.2,5.4,2.1,8.3,3.4c2.8,1.4,5.6,3.3,8.3,6.4c-2.9-0.6-3.1,1.4-5.3,2.7c0.5-1.6-0.5-2.8-2-4c-1.4-1.2-3.1-2.5-4.1-4.3
										c1,1.9-0.2,2.2-0.9,2c0,0,0.4,0.3,0.9,0.7c0.6,0.5,1.3,1.1,2,1.7c1.5,1.2,3,2.4,3,2.4c-1.8,0.9-0.4,2.1-0.1,4.2
										c2.7-3.4,5,3.3,7.6,5.3c-1.1,0.8-2.6,0.9-4.2-2.4c-0.3,2.5,1.4,3,3.1,3.5c1.7,0.5,3.5,1,3.3,3.4c-0.4-0.8-0.5-1.3-1.2-1.3
										c2,1.3,3.5,6.3,1.9,5.8l-0.4-0.8c0.6,1.4,1.4,3.1,2.3,4.8c0.9,1.8,1.8,3.6,2.8,5.3c1,1.7,2.1,3.1,3.1,4.2
										c1,1,1.9,1.7,2.8,1.5c-0.4,0.2-4.1,0.8-4.8,0.8c0,0,3.6,1.3,7.2,2.8c1.8,0.7,3.7,1.5,5,2.1c0.7,0.3,1.3,0.5,1.7,0.7
										c0.4,0.2,0.6,0.3,0.6,0.3c-1.5,0-3.6,1.5-5.7,2.5c-2.1,0.9-4.2,1.3-5.9-0.6c0.1,0.7,0.2,1.5,0.4,2.5c0.3,0.9,0.8,2,1.7,3.2
										c0.1-1,3.2-3.7,3.9-2.5c-1.9,4.5-0.8,3-2,8c0.1-0.8,1.3-1.1,2.6-1c1.3,0.1,2.7,0.7,2.9,1.9c-0.8-0.1-4.3,1.5-5,0.8
										c0,0,1.5,1,2.9,2.1c1.5,1.1,2.9,2.1,2.9,2.1c-1.2-1.2-3.7,0.8-4.6,2.3c0.7-0.8,1.3,4.7,2,6l0.5-2.6
										c0.4,3.2,2.3,4.3,4.2,5.5c1,0.6,2,1.2,2.8,2c0.8,0.9,1.5,1.9,1.7,3.6c-1.1-0.6-5.9-0.7-5.9,2.5c1.3,0.5,4.3,1.6,7.3,3.3
										c1.5,0.9,3.1,1.9,4.4,3c1.3,1.2,2.3,2.5,3,3.9l-1.2,1.3l2.1,4.3c-1.9-1.2-4.9-3.5-7.8-5.9c-2.9-2.4-6-4.9-7.7-6.6
										c-0.6,2.5-1.4,0.9-0.7,4.4c-1,1.4-2.2-1.6-2.4-2.6c0,0,0.2,2,0.3,4.1c0.1,2,0.1,4.1,0.1,4.1c2.6-0.7,3.5,5.9,5.7,5.3
										l-3.9-8.6c1.3-0.4,3.4,0.6,5.1,2.5c1.7,1.9,3.3,4.7,3.3,7.7c-1,1.6-4.9-0.7-5.7-0.4c1,0.7,2.2,5.4,1.6,6l-1.6-2.4
										c-0.2,0.8,0,1.6,0.3,2.3c0.1,0.3,0.3,0.7,0.5,1c0.2,0.2,0.4,0.3,0.6,0.5c0.4,0.4,0.7,0.8,0.8,1.3c0.1,0.5-0.1,1-0.7,1.3
										c-0.1,0.3-1,0.5-1.6,0.6c-0.7,0-1.1,0-0.3,0.6c1.6,0.5,4.8,1.6,7.9,2.9c3.1,1.2,6.1,2.8,7.3,4.5c-0.1,0.3-0.8,2.4-1.6,4.1
										c-0.4,0.9-0.9,1.7-1.4,2.2l-0.2,0.2c-0.1,0-0.3-0.1-0.5-0.1c-0.3-0.1-0.7-0.2-0.9-0.3c-0.6-0.2-1.1-0.4-1.5-0.6
										c-2.3-1.2-2.6-2.6-3.2-4c-0.2-0.3-0.3-0.7-0.5-1c-0.2-0.4-0.4-0.6-0.8-1.1c-0.3-0.4-0.7-0.7-1-1c-0.2-0.1-0.3-0.2-0.4-0.4
										c-0.1-0.1-0.3-0.2-0.5-0.3c0.7,0.7,0.8,1.6,0.7,1.9c-0.8-0.3-1.2-0.9-1.6-1.3c-0.4-0.4-0.9-0.8-1.6-0.6
										c0.9,1.4-0.3,1.3-0.9,1.2c-0.3,0-0.5-0.1-0.4,0c0.2,0.1,0.6,0.4,1.9,1c-0.9,0.4-1.6,0.2-2.3,0c-0.7-0.2-1.5-0.5-2.7-0.5
										c0.6,0.9,0.4,2.4-0.8,3.8c-0.6,0.7-1.4,1.3-2.2,1.9c-0.8,0.5-1.7,0.9-2.5,1.1c0.2-0.7-0.5-1.6-0.9-2
										c-6.4-0.2-9.9-1.5-15.8-1.5c-0.6-0.7-3.4-1.5-2.2-2.6c-0.9,0.5-1.6,1.4-3.5,1.5c-3.6-2.4,4.1-0.4,1.4-3.2
										c-0.2,1.6-4.8,2.2-7.4,3.2c0.8,2.4,6.1,0.5,8.7-0.5c0,3.4-4.6,6.9-10.8,8.5c-5,0.8-2.2-2.2-3-1.7c-9.3-0.6-8,5.9-15.7,3.5
										c-3.1-2.2-0.1-4.3-0.8-5.8c4-0.8,6.2,1.4,9,1.3l-3.4-1c1.3-0.7,4-1.3,5.5-0.6c-2.6-1.9-15.8-0.4-23-2.2
										c-1.3,0.7-3.5,1.5-2.4,2.3l2.3-0.3c2.1,1.7-4.3,2.4-1.4,3.2c-3.1,1.2-6.5,3.1-10.8,2.2l-0.8-2.5c0.1,0.7,2.8,1.5,4,0.7
										c-1.8,1.1-6.6-3.3-8.6-0.1l3,1.7c-3.1,1.2-6.9,3.8-10.7,3.1c1.7,2.4,0.9-0.3,3.6,2.6c-2.4-3.5,9.8,0.1,6-3.6
										c2.8,3.3,4.8,1.4,8.4,4.2c-0.1-0.8-1.3-1.5,1.9-1.1c0.1-0.2,0.5-0.5,0.7-0.7c0.1,0,0.1,0,0.2,0.1c-0.1,0-0.1-0.1-0.2-0.1
										c0.1-0.1,0.1-0.1-0.1,0c-0.8-0.4-1.4-0.8-1.6-1.2c1.6-1.9,6.7-1.8,8.4-2.8c1.9,0.4-0.8,0.9,0.2,1.8l2.6-1.4
										c0.3,1.8,5,3,0.6,4l4,0.1c2.4,1,5.6,1.4,7.6,0.7c1.9,0.4,4.8-2,3.1-0.6l6.3-1.1l0.1,0.4c6.2,0.2,12.8-3,20,0.3
										c2.1-0.5,4.3-1,7.8-0.5l0.7,1.6c2.7-0.5,8.1,1.6,9.2-0.1c0.2,0.3,0.4,0.5,0.6,0.7c0.1,0.1,0.2,0.2,0.4,0.3l0.2,0.1l0.1,0.1
										l0.2,0.1c1,0.3,2.2,0.5,3.6,0.7c2.7,0.3,5.9,0.3,9,0.1c3.2-0.1,6.4-0.3,9.3-0.5c1.5-0.1,2.9-0.1,4.2-0.2c0.7,0,1.3,0,1.9,0
										c0.3,0,0.7,0.1,0.9,0c0-0.3,0-0.5,0-0.8l-2.1-2.2c0-5.4-0.7-11.2-1.7-18c0,0-0.4,0-0.9-0.1c-0.4,0-0.9-0.1-0.9-0.1
										c-0.4-1.4-0.6-2.9-0.6-4.4c0-0.8,0-1.6,0-2.5c0-0.4,0-0.9,0.1-1.3l0-0.3l0-0.2l0.1-0.5c0.1-1.3,0.3-2.7,0.4-4.1
										c0.1-1.4,0.2-2.9-0.1-4.3c0.7,0.3,0.7,1.8,0.4,2.8c0.9-1.8,0.9-3.6,0.7-5.4c-0.3-1.8-0.9-3.5-1.5-5.2
										c-0.3-0.8-0.6-1.7-1-2.5c-0.3-0.8-0.6-1.6-0.9-2.5c-0.5-1.6-0.6-3.3-0.2-4.9c-0.9-1.4-0.9-2.5-0.6-3.7
										c0,0.1,0.1,0.3,0.2,0.4c0-0.2,0-0.4-0.1-0.6c0.2-0.7,0.4-1.5,0.5-2.3c-0.3,0.7-0.5,1.4-0.6,2c-0.2-1.2-0.9-2.9-1.7-4.5
										l1.7-1.2c-0.1-0.1-0.1-0.2-0.1-0.4c0.3-1.9-1.2-1.2-2.4,0.1c-0.5-0.8-1.1-1.5-1.7-2c1.4-1,0.8-2.1,0.3-3.3
										c-0.5-1.1-1.1-2.3,0.3-3.7c-1.9-0.7-3.6-8.3-7.1-8.1c0.4-0.2,0.4-0.7,0.8,0.1c-0.3-2-0.5-3.9-2-5.3l2.1-1.6l-4.5-2.9
										c0.5-2.9,0.9-4.2,3.6-2.5c-5-4.8-2.9-4.4-7.5-8.2l1.6-0.4c-0.4-0.9-1.4-1.8-2.2-2.7c-0.8-0.9-1.4-1.7-1.1-2.5
										c0.3-1.3-0.1-3.1-0.9-5.3c-0.2-0.6-0.4-1.1-0.6-1.7c-0.3-0.6-0.5-1.2-0.8-1.8c-0.6-1.2-1.2-2.6-1.9-3.9
										c-0.7-1.4-1.4-2.8-2.1-4.2c-0.7-1.4-1.5-2.8-2.2-4.2c-0.7-1.4-1.4-2.8-1.9-4.3c-0.6-1.4-1.1-2.8-1.5-4.1
										c-2.8,4.2-1-5.4-4.3-3.8c0.6-1.1,0.3-2.8,2-1.8c-1-1-1.7-2.1-2.2-3c-0.6-1-1-1.9-1.5-2.7c-0.9-1.7-2-3-4.3-3.7
										c0.5-1.2,2,0,2.2-0.8c-0.5-0.2-1.8-0.9-1.6-1.8c0.2-0.9,1.2,0.1,2.1,0.6c-0.9-1.1-1.7-1.9-2.6-2.4
										c-0.9-0.4-1.7-0.6-2.5-0.6c-1.6,0.1-3,0.9-4.4,1.7c-0.6-3.2-1.6-4.2-4.5-4.5c0.2-1.4,0-3.4,2.5-0.9
										c-0.3-0.4-0.8-1.3-1.5-2.3c-0.7-1-1.6-2.2-2.5-3.2c-1.8-2.2-3.7-3.9-4.7-3.1c0-0.4-0.4-1-0.9-1.5c-0.5-0.4-1.1-0.8-1.4-0.9
										c-2.9-3.3-3-3.8-6.2-6.7l0.5,1.2c-3.3,0.9-3-2.1-5.8-4.2l0.3-0.2c-2.1-3.6-2.9-4-3.7-4.4c-0.8-0.4-1.5-0.8-3.7-4.4
										l-0.9,1.7c-1.6,1.3-2.5-0.3-3.6-2.4c-1-2.2-2.4-4.8-4.7-5.6l0.6,1.9c-1.4-0.2-1.9-2.4-2.3-4.8c-0.4-2.4-0.6-5-1.5-6
										c-0.2-0.6,1.1,0,1.8,0.3c-4-5.9-2.2,1.5-6.6-0.9c0-1.6,3-2.1,0.4-4.3c-0.2-0.5-0.9-0.8-2-1.2c-0.5-0.2-1.1-0.4-1.8-0.5
										c-0.7-0.2-1.4-0.3-2.1-0.5c-2.9-0.8-5.9-1.8-7.2-4.2c0.3,1.4,0.6,2.9-1.8,2.3c-1.6-0.8-3.2-2.8-4.9-4.5
										c-1.7-1.7-3.6-3.1-5.8-2.4c-0.3-0.5-0.3-0.8-0.2-1c-2.8-0.5-8.5-2.8-10.7-1.9c0.4-3.5-3.9-4.5-7.7-5.3
										c-1-0.2-1.9-0.4-2.8-0.6c-0.9-0.2-1.7-0.4-2.3-0.6c-1.2-0.5-1.9-1.3-1.3-2.8c0,0-2-0.7-3.9-1.4c-1-0.3-2-0.7-2.7-0.9
										c-0.7-0.2-1.2-0.4-1.2-0.4l0.4-0.5c-4.9-2.1-7.2-1.3-9.4-0.5c-1-0.8,0-1,0.2-1.3c-1.7-0.9-3.1-1.5-4.3-2
										c-1.2-0.4-2.2-0.7-3.2-0.8s-2-0.1-3.2,0c-1.2,0.1-2.5,0.3-4.3,0.7l-0.2-2.1c-1,0.4-3.5-1-6.8-2.4c-0.8-0.3-1.7-0.7-2.6-1
										c-0.9-0.3-1.9-0.5-2.9-0.7c-1.9-0.4-4-0.6-5.9-0.4c0.1-0.2,0.3-0.6,1-0.7c-1.1,0.1-2.2,0-3.4-0.1c-1.1-0.2-2.3-0.4-3.5-0.7
										c-2.3-0.6-4.6-1.4-6.8-2.1c-2.2-0.7-4.2-1-6-0.9c-1.8,0.2-3.1,0.9-4.1,2.7c0,0-1.9,0.3-3.8,0.7c-0.9,0.2-1.8,0.3-2.4,0.5
										c-0.6,0.2-1.1,0.3-1.1,0.3c4.7,0.5,4.3,1.3,3.5,2.1c-0.8,0.8-2,1.6-0.3,2.4c-1.4,0.1-3.3-0.4-4.7-1.1
										c-1.4-0.7-2.1-1.4-0.2-1.6l0.8,0.4c0-0.9-0.6-1.5-1.8-1.9c-1.1-0.4-2.7-0.5-4.3-0.7c-3.2-0.3-6.5-0.4-7.6-1.7l-0.9,0
										l-0.5,0c0,0.1,0,0.3,0,0.4l0,1.8c0,1.2,0,2.4-0.1,3.6c0,2.4-0.1,4.8-0.2,7.2c-0.1,2.4-0.2,4.9-0.3,7.3l-0.1,1.9l-0.1,1.4
										c-0.1,0.9-0.1,1.7-0.2,2.5c-0.5,6.8-1.1,13.4-1.2,20l2.9-1.5l-0.2,4.6c-0.7,1.2-2.3,1.6-2.2-1.6c-1.7,1.7,1.4,5.5,2,5.5
										c-1.2,6.4-3.4-2.5-3.5-0.5l0.2,2.7l0.3-0.6c1.2,2.1,2.5,2.3,2.3,6.2c-0.6,2.5-1.8,1.3-1.9,2.2c-0.2,0-0.3,0.3-0.1,1.5
										l-0.2,5.7l2.3-2.3c1.1,2.5-0.1,5.4,2.5,2.7c-4,3.9-1.4,21.4-2.7,23.8c1.7,3.6,1.7,7.1,1.5,11.4c0.5-1.1,3.1-1.7,2.8,2
										c-5.4-1.4-2.3,6.9-6.2,9.9c2.6-2.7,0.6,10.7,4.3,6.4c-0.4,3.1-2,0.2-3.3,2.6c2.1,7.5-1.3,16.4-0.6,25.7
										c0.7,0.1,1.8-1.4,2.8,0.6l-3.5,4.9c0.3,1.8,4.1,1.7,1.6,5c0.6-0.5,1.5-1.2,1.7,0.1c-3.4,18.1,2.8,36.9-3.6,55.3
										c1.4-2.5,1.5-0.8,1.5,1.1c0.3-1.2,1.7,0,2.7-0.2l-2.6,7.7c2.6,1.4,0.2,8.2,2.7,9l-0.5-2.4c3,3.2,6.6-4.5,10.5-4.1
										c-3.4-3.6,5-9.6,0.2-15.5c0.8-1.3,1.2,1.1,2.1,0.4c-1.6-1.5-2-3.3-1.2-6.7l0.4,0.4c-0.4-9.5,1.2-13.5,2.3-24.2l-1.9,0.8
										c0.3-2.3,0.8-2.8,1.3-3.8c-2.9-2.6-0.2,6.4-3.3,4c3.9-3,0.1-16.1,4.4-18.2c0-3.5-2.2,1-2.2-2.5l1.2-0.9l-1.5-0.9
										c0.3-2.3,1.7-3.5,2.7-3.6c-0.1,0.6,0.3,1.6,0.4,2.2c1.4-3-0.5-8.4,0-9.5l-0.7,3.4c-1.1-9.6,0.4-21.3-2-30.6l-0.9,0.7
										c-1.7-7.1,1-5.7,0.2-13.5l0.2,0.3c-0.9-1.6-1.3-3.6-1.2-5.8c1,2,2-3.7,3.2-1.1c-1.8-7.7-1.4-3.8-4.7-8.9l1.5-1.2
										c-1.3-1.7-2-1.9-2.4-5.8c1.3,3.2,2.3-2.5,3.9,1.1c3.2-8.2-3.3-12.1,1.5-15.8c-4.1-3.7-2.3,7.1-3.2,5
										c-1.3,1.8-3.1-3.1-2.7-5.6c0.1-2.6,5.2-4.4,5.2-11c0,0.7,0.3,0.7,0.3,1.3c1-2.5-1.4-4.8,0.3-7.8c-2.5-1.7,0.1-3.9-3-4.4
										l0.7,6c-0.8-3.4-4.5-6.6-2.7-12.2c0.6,0.4,1.5,2.1,1.9,3.3c0.9-1.6-0.6-3.2,0.3-4.9c3.2,0.5,0.7,7.3,3.1,11
										c1.3-1.8-2.3-6.9,1.1-5.1c-4.4-2.6,0.5-6.5-2.8-10.9l1.9,0.3c-0.3-0.7-1.2-2.2-1.1-3.4l2.5,2.3c-2.1-3.6,1.8-6.9,0.7-10.4
										c0.1,7.2-2.3,1.6-3.7,4.7c-1.3-4.4,0-5.7,1.4-7.1c0.7-0.7,1.5-1.4,2-2.6c0-0.1,0.1-0.1,0.1-0.2c0-0.1,0.1-0.1,0.1-0.1
										c0.1,0,0.1-0.1,0.2-0.1c0.1-0.1,0.2-0.2,0.2-0.3c0.1-0.2,0.1-0.5,0-0.8c0.1,0.2-0.1,0.5-0.6,0.6c-0.4,0.2-1,0.3-1.4-0.1
										c0.4-0.7,1.1-1.4,2.1-1.2c-0.2-0.9-0.7-1.3-1.3-1.4c-0.6-0.2-1.3,0-1.9-1c1.2,0.2,0.9-0.2,0.3-1.1c-0.6-0.9-1.6-2.2-2-3.5
										l1.9,1.9c0-0.2,0.4,0,0.5,0c0.2,0,0.3,0,0.5,0c0.2,0,0.3-0.1,0.4-0.3c0.1-0.3-0.2-0.8-0.4-1.3c-0.2-0.5-0.5-1-0.3-1.3
										c0.2-0.3,0.8-0.3,2,0.1c0,0-0.1,0.7-0.1,1.4c0,0.7,0.1,1.4,0.1,1.4c0,0,0.3-0.2,0.6-0.3c0.3-0.2,0.7-0.3,0.7-0.3
										s0.1,0.6,0.3,1.1c0.2,0.6,0.4,1.1,0.4,1.1c0.3-0.8,0.8-1.1,1.3-1.1c0.3,0,0.5,0.1,0.8,0.2c0.1,0.1,0.3,0.1,0.5,0.2
										c0.2,0.1,0.2,0.2,0.8,0.3c-0.7-1.4,0.7-3.5,4-3.3c2.1,1.3-1.4,1.7,3.2,1.8c-1.2,1.1-2.4,2.5-4.2,0.6
										c-0.3,0.6-1.1,1.1-1.4,1.7c1.1,0.7,2.6,0.9,3.9,0.9c1.4,0,2.7,0,3.5,0c-0.6-0.1-1.3-0.4-1.7-0.7l6.9-1.8
										c0.9,0.8,0,1.3-0.8,1.8c1.3,0,2.4-0.8,4.4-0.7c-0.7,1.5-0.9,3.1-3.7,3.5c0,0,1.6-0.2,3.2-0.5c1.6-0.2,3.2-0.3,3.2-0.3
										c0.3,0.7,2.8,2.4,1.9,2.8c1.6,0.8,3.8,0.4,6.1,0.1c2.3-0.2,4.8-0.3,6.9,0.8c0.3-0.2,0.8-0.4,1.8-0.4
										c2.1,0.6,3.9,1.8,5.8,2.6c2,0.8,4.1,1.4,6.9,1l1.9,3.6c4,0.7-2.6-4.6,4-3.5c4.8,0.7,0.9,2.8,2.2,4.1
										c0.7-0.1,1.5-0.4,2.4-0.5c0.9-0.1,1.8-0.2,2.8-0.1c1.9,0.1,4,0.8,5.6,2.6C329.8,39.5,328.9,38.7,327.6,38.4z M371.9,60.3
										c-1-0.2-3.3-0.2-3.3-1.5C370.8,57.5,370.9,58.9,371.9,60.3z M430,109.4c-0.9-0.2-1.4-1.3-1.6-2.7
										C429.1,107.3,429.7,108.2,430,109.4z M410.4,255.6c0,0,0.1-0.1,0.1-0.1C412.7,256.3,411.9,256,410.4,255.6z M405.8,254.8
										c-0.5,0.3-0.4,0.5-0.2,0.8c0.3-0.5,1.4-0.5,2.5-0.4C407.7,254.7,407.1,254.3,405.8,254.8z M238.5,70.2l0.5-0.9
										C239.6,71.3,239.1,70.7,238.5,70.2z"/>
									<path class="st0" d="M422.5,104.2c0.1-0.4,0.3-0.7,0.6-1C422.6,103.1,422.3,103.3,422.5,104.2z"/>
									<path class="st0" d="M298.1,30.2c0,0-0.1,0-0.1-0.1c-0.1,0.1-0.2,0.2-0.2,0.3L298.1,30.2z"/>
									<path class="st0" d="M470.3,238.4c0.7,0.3,1.4,0.6,1.9,1C471.8,238.9,471.1,238.5,470.3,238.4z"/>
									<path class="st0" d="M381.2,258l3-0.5c-1.4,0.1-1.9-0.3-2.7-0.6C381.6,257.4,382.2,258,381.2,258z"/>
									<path class="st0" d="M355.5,246.1c-0.4,0.2-0.9,0-1.3,0.3l0.1,0.9C356.1,247.2,357.4,246.5,355.5,246.1z"/>
									<path class="st0" d="M378.5,251.6c-0.2-1.6-2.1-1.1-4.2-0.8c0.1,0,0.2,0,0.4,0C374.1,253.1,376.3,252.4,378.5,251.6z"/>
									<path class="st0" d="M373.8,250.9c-0.6,0.1-1.3,0.1-1.9,0C371.7,251.9,372.7,251.1,373.8,250.9z"/>
									<path class="st0" d="M399.9,255.8c-1-0.4-0.6,2.1-1.2,1.4C397.6,259.3,405.3,254.7,399.9,255.8z"/>
									<polygon class="st0" points="376.8,246.3 377.5,248.3 378.7,246.7 									"/>
									<path class="st0" d="M393.2,247.7l-3.3-0.6c0,0.3-0.4,0.5-0.9,0.7C391,247.9,393.3,248.3,393.2,247.7z"/>
									<path class="st0" d="M389,247.9c-1.1,0-2.1,0-2.7,0.3C386.9,248.2,388.1,248.1,389,247.9z"/>
									<polygon class="st0" points="381.3,245.7 382.3,246.1 384.7,246.2 									"/>
									<path class="st0" d="M428.9,248.1l3.6-0.6c0.4-0.7-0.6-1.1-2-0.8C429.7,247.2,428.3,247.5,428.9,248.1z"/>
									<path class="st0" d="M417.9,242.6c1,0.4,1,0.9,1.6,1.5l0.1-2.5L417.9,242.6z"/>
									<path class="st0" d="M428.5,242.1c0.4-0.7,5.3-2,0.7-1.8C428.8,240.9,425.2,241.5,428.5,242.1z"/>
									<path class="st0" d="M478.3,241.9l0.1,0.9l4.2,3.2c0,0-1.1-1.1-2.1-2.1C479.3,242.8,478.3,241.9,478.3,241.9z"/>
									<path class="st0" d="M463.2,197.4c0,4.2,2.7,0.4,2.3,4.3c0.5,0.4,0.7-0.4,0.7-1.2c0.1-0.8,0.1-1.6,0.6-1.2
										C465.3,197,465.5,195.7,463.2,197.4z"/>
									<path class="st0" d="M466.8,199.3c0.2,0.4,0.5,0.7,0.9,1.1C467.3,199.7,467,199.4,466.8,199.3z"/>
									<polygon class="st0" points="236.5,238.7 235.6,241.4 237,239.6 									"/>
									<path class="st0" d="M239.5,244l-2.6,0.6l2.4,1.7C239.1,245.6,238.9,244.4,239.5,244z"/>
									<path class="st0" d="M374.9,68.8l0.5-0.4c0.1-0.8-0.4-1.2-1.3-2L374.9,68.8z"/>
									<polygon class="st0" points="345.7,48.8 346.3,49.1 346.3,46.5 									"/>
									<path class="st0" d="M317.4,40c1.1,0.5,2.6,0.4,3.7,0.9C318.5,40.5,318,37.2,317.4,40z"/>
								</g>
							</g>
						</g>
					</g>
				</g>
			</g>
		</g>
	</g>
</g>
</svg>
